<svg xmlns="http://www.w3.org/2000/svg" width="987" height="799" viewBox="0 0 987 799">
<g>
<path d="M 171.57 662.10 C172.37,662.42 173.08,662.63 173.68,662.76 C171.57,662.46 169.18,662.13 166.44,661.76 C166.77,661.59 166.91,661.21 166.75,660.75 C166.51,660.01 163.83,659.30 160.17,659.00 C153.38,658.45 152.29,659.38 156.09,660.37 C155.09,660.24 154.06,660.10 153.00,659.96 C152.70,659.92 152.39,659.88 152.08,659.84 C152.89,659.82 153.00,659.57 153.00,659.11 C153.00,657.81 151.18,657.35 145.02,657.10 C138.52,656.84 138.85,657.81 145.65,658.95 C145.85,658.98 146.05,659.02 146.24,659.05 C143.13,658.63 139.97,658.19 137.07,657.79 C137.85,657.72 138.00,657.47 138.00,657.00 C138.00,656.45 137.66,655.98 137.25,655.95 C136.84,655.92 134.59,655.65 132.25,655.36 C129.65,655.02 128.00,655.21 128.00,655.84 C128.00,656.09 128.29,656.36 128.77,656.60 C128.50,656.56 128.24,656.52 128.00,656.49 C126.77,656.30 125.36,656.10 123.85,655.88 C125.13,655.98 125.93,655.69 125.50,655.00 C125.16,654.45 123.45,654.03 121.69,654.07 C119.00,654.13 118.81,654.28 120.50,655.00 C121.29,655.34 122.10,655.59 122.83,655.73 C120.68,655.42 118.39,655.10 116.18,654.79 C116.80,654.71 117.00,654.49 117.00,654.11 C117.00,652.77 114.33,652.00 109.72,652.00 C106.26,652.00 105.70,652.88 107.66,653.62 C105.56,653.31 103.56,652.93 101.92,652.56 C101.97,652.44 102.00,652.29 102.00,652.11 C102.00,651.15 99.57,649.98 97.67,650.03 C97.64,650.03 97.61,650.03 97.59,650.04 C97.40,649.06 97.23,647.42 97.10,644.63 C98.38,634.85 98.35,432.33 97.00,431.50 C96.62,431.27 96.35,442.58 96.19,465.30 C95.81,217.84 95.98,131.62 96.82,130.78 C97.33,130.27 101.96,128.15 107.12,126.06 C108.67,125.44 110.17,124.83 111.64,124.23 C102.42,128.01 99.14,129.48 98.70,129.91 C98.26,130.35 99.16,131.52 100.70,132.52 C103.88,134.59 128.28,154.11 159.42,179.50 C164.81,183.90 172.21,189.92 175.86,192.88 C179.51,195.84 184.98,200.40 188.00,203.01 C191.02,205.63 197.37,210.85 202.10,214.63 C220.66,229.46 237.79,243.66 243.76,249.17 C247.20,252.35 252.58,256.87 255.70,259.23 C258.83,261.58 262.33,264.40 263.50,265.50 C269.07,270.77 276.39,276.67 279.29,278.22 C281.06,279.17 284.08,281.68 286.00,283.80 C287.92,285.92 291.98,289.39 295.00,291.52 C298.02,293.65 302.98,297.46 306.00,299.98 C309.02,302.50 313.30,305.86 315.50,307.44 C317.70,309.03 320.69,311.49 322.15,312.91 C328.62,319.23 331.67,321.84 334.00,323.02 C337.06,324.58 340.27,327.13 352.52,337.75 C357.75,342.29 362.37,346.00 362.77,346.00 C363.17,346.00 366.20,348.51 369.50,351.58 C372.80,354.65 377.08,357.99 379.00,359.00 C380.92,360.01 386.10,364.09 390.50,368.06 C394.90,372.03 399.64,376.00 401.04,376.89 C404.13,378.85 410.60,383.86 413.16,386.27 C414.94,387.94 414.95,388.20 413.36,391.27 C412.45,393.05 409.29,397.34 406.35,400.81 C403.41,404.28 401.00,407.52 401.00,408.02 C401.00,408.52 398.08,411.97 394.50,415.69 C390.92,419.41 388.00,422.83 388.00,423.29 C388.00,425.93 378.17,437.00 375.82,437.00 C371.99,437.00 359.99,426.30 357.72,420.86 C356.92,418.97 353.85,415.44 350.89,413.03 C347.92,410.61 345.05,408.15 344.50,407.57 C343.95,406.98 341.85,405.27 339.84,403.77 C337.82,402.26 335.57,400.45 334.84,399.73 C334.10,399.02 330.58,396.21 327.00,393.50 C323.42,390.78 319.38,387.53 318.01,386.28 C316.64,385.02 315.21,384.00 314.83,384.00 C314.45,384.00 313.55,383.44 312.82,382.75 C311.64,381.62 302.23,373.77 293.10,366.29 C291.23,364.75 288.05,362.38 286.04,361.00 C281.77,358.09 264.64,344.27 261.05,340.84 C259.71,339.55 257.62,337.83 256.40,337.00 C255.19,336.17 249.32,331.65 243.35,326.95 C224.36,311.98 223.33,311.53 220.52,316.96 C219.03,319.85 218.18,329.51 219.32,330.66 C219.69,331.03 220.00,330.16 220.00,328.72 C220.00,326.17 220.61,322.72 221.40,320.00 C220.67,324.21 220.24,332.41 219.94,348.54 C219.82,344.40 219.51,342.22 219.10,342.88 C218.62,343.63 218.18,348.47 218.13,353.63 C218.08,359.15 218.44,363.00 219.02,363.00 C219.33,363.00 219.59,361.74 219.76,359.58 C219.58,373.11 219.44,390.82 219.29,414.00 C219.19,429.12 219.13,444.39 219.11,458.61 C219.12,450.54 219.14,442.31 219.18,434.23 C219.44,379.43 219.25,366.30 218.25,367.67 C217.33,368.93 217.00,376.02 217.00,394.69 C217.00,412.32 216.67,420.00 215.91,420.00 C215.31,420.00 213.67,420.90 212.27,422.00 C210.87,423.10 208.96,424.00 208.02,424.00 C207.08,424.00 205.54,424.85 204.60,425.89 C203.67,426.92 201.68,428.03 200.20,428.34 C198.71,428.65 196.15,430.09 194.51,431.53 C192.86,432.97 190.27,434.40 188.73,434.70 C187.20,435.01 185.03,436.55 183.91,438.13 C182.78,439.71 181.04,441.00 180.03,441.00 C179.02,441.00 176.37,442.46 174.14,444.25 C171.91,446.04 169.19,448.17 168.09,449.00 C166.15,450.47 166.10,451.98 165.82,523.23 C165.58,585.78 164.99,597.07 169.24,599.36 C170.65,600.12 172.60,599.88 175.26,600.20 C184.07,601.26 210.21,605.10 222.50,607.15 C225.80,607.70 230.41,608.14 232.74,608.12 C237.62,608.09 244.01,610.45 243.98,612.26 C243.97,612.94 242.38,615.30 240.45,617.50 C238.52,619.70 236.66,622.62 236.32,624.00 C235.98,625.38 233.62,628.97 231.07,632.00 C228.53,635.03 225.16,639.41 223.59,641.75 C222.01,644.09 220.33,646.00 219.85,646.00 C219.37,646.00 218.11,647.46 217.07,649.25 C212.95,656.27 204.52,665.87 203.00,665.25 C200.20,664.12 191.81,663.79 190.83,664.77 C190.44,665.16 191.03,665.52 192.53,665.84 C190.65,665.56 189.03,665.29 188.00,665.07 C187.17,664.90 186.28,664.73 185.27,664.55 C186.42,664.67 187.36,664.78 187.75,664.83 C189.55,665.07 189.29,663.33 187.42,662.61 C186.55,662.27 183.76,662.00 181.22,662.00 C177.47,662.00 176.68,662.76 178.37,663.44 C177.22,663.27 175.96,663.09 174.58,662.89 C175.48,662.94 176.00,662.68 176.00,662.11 C176.00,660.79 173.25,659.97 171.32,660.71 C169.82,661.28 169.85,661.43 171.57,662.10 ZM 865.00 234.00 C865.00,234.29 865.05,234.52 865.15,234.67 C864.05,234.91 862.92,235.00 861.68,235.00 C860.50,235.00 858.92,234.92 857.23,234.79 C857.77,234.70 858.00,234.47 858.00,234.11 C858.00,233.62 857.33,232.95 856.50,232.64 C855.67,232.32 855.00,232.55 855.00,233.15 C855.00,233.90 854.60,233.92 853.75,233.23 C851.90,231.73 837.55,230.47 838.43,231.89 C838.53,232.05 838.76,232.22 839.07,232.36 C837.72,232.17 836.36,231.98 835.04,231.79 C836.26,231.88 837.00,231.66 837.00,231.18 C837.00,230.61 834.41,229.86 831.25,229.51 C828.09,229.15 824.60,228.46 823.50,227.95 C821.11,226.86 802.48,224.93 800.43,225.56 C799.64,225.80 798.21,226.28 797.25,226.63 C793.08,228.14 784.70,228.03 782.27,226.44 C780.06,224.99 779.87,224.36 780.43,220.17 C780.77,217.60 781.47,212.12 781.97,208.00 C782.48,203.88 783.38,197.80 783.98,194.50 C784.57,191.20 785.47,184.68 785.98,180.00 C786.48,175.32 787.14,169.84 787.45,167.81 C787.81,165.41 787.57,163.84 786.75,163.32 C784.40,161.80 776.50,160.09 771.70,160.04 C769.06,160.02 765.69,159.40 764.20,158.66 C762.72,157.93 755.88,156.75 749.00,156.05 C742.12,155.34 735.78,154.39 734.90,153.93 C734.01,153.46 730.19,152.82 726.40,152.49 C722.60,152.17 717.92,151.51 716.00,151.02 C714.08,150.53 707.33,149.61 701.00,148.96 C694.67,148.32 688.83,147.43 688.00,147.00 C687.17,146.56 681.33,145.67 675.00,145.00 C668.67,144.34 663.03,143.42 662.46,142.95 C661.88,142.48 658.28,141.81 654.46,141.46 C650.63,141.10 646.15,140.23 644.50,139.52 C641.40,138.17 618.21,135.46 617.33,136.33 C617.06,136.61 616.64,145.98 616.39,157.16 C616.15,168.35 615.70,182.08 615.38,187.68 C614.82,197.86 614.81,197.87 610.84,202.18 C606.61,206.79 596.49,219.02 594.00,222.55 C593.17,223.72 589.97,228.46 586.87,233.09 C583.78,237.71 578.90,244.65 576.03,248.50 C573.17,252.35 570.42,256.17 569.93,257.00 C569.37,257.94 568.75,258.13 568.27,257.50 C567.25,256.18 563.10,253.86 560.40,253.11 C559.21,252.77 554.73,249.17 550.46,245.11 C543.94,238.90 542.88,237.45 543.85,236.11 C544.49,235.22 545.56,233.38 546.23,232.00 C546.89,230.62 548.91,227.52 550.72,225.11 C552.52,222.69 554.00,220.17 554.00,219.51 C554.00,218.85 554.96,217.45 556.13,216.40 C557.30,215.36 559.04,212.70 560.00,210.50 C560.96,208.30 562.70,205.64 563.87,204.60 C568.24,200.69 566.93,198.07 554.01,184.81 C547.41,178.04 542.12,172.16 542.26,171.75 C542.39,171.34 543.98,169.09 545.79,166.75 C547.59,164.41 551.98,158.45 555.54,153.50 C559.10,148.55 563.38,142.70 565.06,140.50 C572.42,130.86 577.10,123.79 576.76,122.79 C576.56,122.17 572.25,127.37 565.61,136.16 C566.26,135.29 566.90,134.43 567.53,133.59 C571.69,128.02 576.68,121.25 579.69,117.09 C579.26,117.87 579.00,118.49 579.00,118.84 C579.00,119.48 579.34,119.98 579.75,119.97 C580.99,119.91 590.98,105.77 590.42,104.87 C590.05,104.27 587.58,106.72 585.03,109.76 C589.87,103.39 591.48,103.01 597.29,103.08 C599.02,103.11 601.28,103.24 603.51,103.43 C602.75,103.45 602.20,103.52 602.03,103.68 C601.77,103.92 602.22,104.53 603.03,105.04 C604.90,106.22 612.71,106.28 613.42,105.12 C613.52,104.98 613.27,104.81 612.81,104.65 C615.80,105.11 618.82,105.57 621.80,106.00 C620.76,106.05 620.18,106.48 620.50,107.00 C620.84,107.55 621.51,108.00 622.00,108.00 C622.49,108.00 623.16,107.55 623.50,107.00 C623.70,106.67 623.55,106.38 623.15,106.20 C625.30,106.51 627.42,106.81 629.48,107.09 C628.61,107.25 628.00,107.60 628.00,108.00 C628.00,108.55 628.87,109.00 629.94,109.00 C631.01,109.00 632.16,108.55 632.50,108.00 C632.61,107.82 632.60,107.65 632.49,107.50 C637.01,108.11 641.14,108.61 644.50,108.97 C649.45,109.51 656.42,110.40 660.00,110.95 C660.51,111.03 661.15,111.12 661.89,111.23 C649.31,109.57 644.51,109.20 643.75,109.69 C642.98,110.18 644.40,110.77 647.50,111.23 C656.42,112.56 675.33,115.04 682.17,115.78 C685.84,116.18 689.18,116.84 689.59,117.25 C690.71,118.38 701.00,118.15 701.00,117.00 C701.00,116.84 700.90,116.68 700.71,116.55 C701.87,116.71 702.82,116.85 703.50,116.96 C705.58,117.28 708.13,117.66 711.34,118.13 C709.16,117.85 706.92,117.55 705.50,117.36 C702.60,116.95 701.79,117.10 702.55,117.90 C703.13,118.51 705.61,119.28 708.05,119.61 C710.50,119.95 712.69,120.40 712.92,120.61 C713.15,120.82 714.83,121.00 716.67,121.00 C721.05,121.00 720.82,119.79 717.26,118.98 C721.21,119.53 725.91,120.19 731.55,120.97 C729.72,120.89 727.39,120.65 725.88,120.37 C723.54,119.93 722.81,120.06 723.50,120.78 C724.05,121.36 725.62,122.03 727.00,122.28 C731.64,123.11 734.88,123.01 735.50,122.00 C735.61,121.82 735.58,121.65 735.42,121.51 C736.75,121.69 738.13,121.88 739.56,122.08 C738.67,122.20 738.00,122.50 738.00,123.00 C738.00,123.55 738.34,124.02 738.75,124.05 C743.66,124.40 752.26,125.37 755.91,125.99 C762.43,127.09 762.82,127.10 763.41,126.14 C763.63,125.79 761.72,125.27 759.07,124.75 C772.41,126.59 785.60,128.45 789.00,128.98 C792.58,129.54 802.70,130.90 811.50,132.00 C827.21,133.97 834.03,134.84 851.00,137.09 C867.66,139.29 895.91,143.83 896.95,144.47 C897.65,144.90 898.00,155.28 898.00,175.41 L 898.00 205.70 L 896.04 208.41 C897.99,205.39 898.00,203.64 897.98,184.02 C897.98,171.53 897.55,161.87 896.98,161.00 C896.31,159.99 896.02,167.14 896.07,182.86 C896.14,205.16 896.05,206.32 894.07,208.43 C892.93,209.64 892.00,211.16 892.00,211.81 C892.00,212.61 892.13,212.98 892.46,212.89 C891.54,213.85 890.71,214.54 890.21,214.73 C889.27,215.08 885.35,218.51 881.50,222.34 C878.68,225.15 876.38,227.36 874.42,229.09 C876.40,227.27 877.24,225.91 876.66,225.33 C876.32,224.99 874.02,226.57 871.54,228.85 C869.07,231.13 866.58,233.00 866.02,233.00 C865.46,233.00 865.00,233.45 865.00,234.00 ZM 765.00 745.24 C764.56,744.94 763.84,744.43 762.91,743.74 C763.13,743.89 763.33,744.02 763.50,744.13 C765.15,745.15 766.50,745.99 766.50,745.99 L 767.00 669.25 C767.28,627.04 767.50,524.78 767.50,442.00 C767.50,317.25 767.73,290.95 768.86,288.27 C769.89,285.83 770.13,280.68 769.85,267.02 C769.64,257.11 769.81,249.00 770.21,249.00 C770.62,249.00 771.66,250.08 772.53,251.40 C773.39,252.72 775.87,254.97 778.03,256.40 C780.19,257.83 782.82,260.69 783.87,262.75 C784.93,264.81 786.71,267.34 787.85,268.36 C788.98,269.39 791.06,272.42 792.45,275.10 L 795.00 279.96 L 795.00 404.98 C795.00,487.66 795.34,530.00 796.00,530.00 C796.64,530.00 797.07,497.98 797.30,434.87 C797.29,446.11 797.28,457.94 797.27,470.40 C797.14,601.91 796.84,711.18 796.61,713.23 C796.27,716.27 794.50,718.79 786.85,727.09 C776.34,738.50 768.14,747.03 767.75,746.95 C767.61,746.92 766.38,746.15 765.00,745.24 ZM 693.00 568.00 C693.00,598.19 693.10,606.31 691.08,606.87 C690.25,607.11 689.07,606.07 687.38,604.77 C675.15,595.32 657.40,580.30 652.51,575.25 C650.78,573.46 648.89,572.00 648.32,572.00 C647.74,572.00 645.53,570.68 643.39,569.06 C641.25,567.44 637.54,564.62 635.14,562.81 C626.76,556.46 624.24,553.38 623.69,548.79 C623.41,546.43 622.65,542.47 622.00,540.00 C621.36,537.53 620.23,527.32 619.49,517.32 C618.71,506.76 617.60,498.17 616.85,496.82 C616.14,495.55 615.21,491.35 614.79,487.50 C614.37,483.65 613.78,478.25 613.48,475.50 C612.56,466.98 613.72,466.83 623.16,474.24 C627.75,477.85 632.40,481.64 633.50,482.68 C634.60,483.71 637.30,485.88 639.50,487.50 C641.70,489.12 646.65,493.06 650.50,496.25 C669.19,511.75 691.15,529.00 692.18,529.00 C692.63,529.00 693.00,546.55 693.00,568.00 ZM 293.00 648.32 C293.00,649.35 293.11,650.04 293.26,649.95 C290.38,654.07 286.98,659.04 285.02,662.00 C280.84,668.33 277.63,672.25 274.84,674.28 C274.89,674.20 274.94,674.11 274.99,674.02 C275.80,672.51 275.75,672.16 274.77,672.53 C273.76,672.92 273.54,667.67 273.68,646.76 C273.79,632.32 274.10,619.30 274.39,617.84 C274.68,616.38 277.29,611.75 280.21,607.55 C283.12,603.35 286.37,598.47 287.42,596.70 C288.48,594.94 291.21,591.25 293.48,588.50 C295.76,585.75 298.63,581.83 299.86,579.79 C301.10,577.75 303.78,574.07 305.81,571.61 C307.84,569.15 311.98,563.00 315.00,557.94 C318.02,552.88 321.76,547.80 323.30,546.64 C324.85,545.49 326.93,542.73 327.93,540.52 C328.94,538.31 331.73,534.16 334.13,531.30 C336.53,528.45 339.40,524.78 340.50,523.15 C345.92,515.13 349.55,511.00 351.16,511.00 C352.14,511.00 355.76,513.73 359.22,517.07 C362.68,520.41 366.75,523.39 368.29,523.70 C370.30,524.11 371.51,525.28 372.60,527.88 C374.38,532.11 374.07,532.81 365.46,544.50 C362.62,548.35 357.61,555.33 354.32,560.00 C346.95,570.48 334.91,587.15 333.73,588.50 C333.24,589.05 331.87,591.13 330.67,593.13 C327.48,598.46 320.67,608.35 319.39,609.50 C317.21,611.47 302.92,633.25 303.45,633.79 C303.59,633.92 303.64,634.11 303.75,634.16 C304.19,634.34 305.56,632.29 317.03,616.00 C320.54,611.01 324.66,605.17 328.43,599.85 C324.00,606.13 318.91,613.37 314.57,619.58 C308.72,627.95 302.19,637.25 298.05,643.14 C298.36,642.52 298.35,642.24 297.93,642.48 C294.79,644.29 293.00,646.41 293.00,648.32 ZM 795.02 550.25 C795.03,559.17 795.35,563.01 796.00,562.00 C797.31,559.98 797.31,537.00 796.00,537.00 C795.38,537.00 795.01,542.07 795.02,550.25 ZM 798.77 229.88 C798.05,232.29 797.70,252.28 797.49,325.40 C797.50,316.83 797.50,308.00 797.50,298.91 C797.50,244.02 797.68,232.31 798.77,229.88 ZM 742.98 122.55 C744.85,122.81 746.80,123.07 748.83,123.35 C746.92,123.21 745.48,123.20 745.11,123.43 C744.57,123.76 743.86,123.58 743.51,123.02 C743.40,122.84 743.21,122.68 742.98,122.55 ZM 833.56 231.58 C833.37,231.55 833.19,231.53 833.00,231.50 C828.43,230.86 823.04,230.08 819.13,229.50 C824.61,230.16 830.11,230.94 833.56,231.58 ZM 213.57 668.45 C209.48,667.94 205.43,667.46 201.00,666.96 C199.58,666.80 198.06,666.61 196.56,666.41 C196.60,666.41 196.63,666.42 196.67,666.42 C201.33,666.88 205.50,667.36 213.57,668.45 ZM 678.70 113.55 C679.81,113.70 680.92,113.85 682.00,113.99 C686.23,114.55 690.75,115.16 694.63,115.69 C692.15,115.43 688.86,115.01 685.63,114.54 C683.19,114.19 680.88,113.86 678.70,113.55 ZM 850.50 233.94 C851.14,234.07 851.73,234.19 852.27,234.29 C851.68,234.22 851.11,234.14 850.58,234.06 C849.17,233.84 846.95,233.51 844.37,233.13 C846.34,233.27 848.80,233.59 850.50,233.94 ZM 803.48 228.09 C801.22,228.26 799.71,228.75 798.96,229.56 C798.96,229.55 798.97,229.54 798.98,229.53 C799.87,228.45 800.77,228.05 803.48,228.09 ZM 259.31 554.75 C257.69,555.95 254.16,556.23 247.72,555.58 C253.86,556.12 257.83,555.84 259.31,554.75 ZM 271.80 675.81 C271.29,675.94 270.79,676.00 270.30,676.00 C269.58,676.00 267.45,675.79 264.45,675.43 C268.03,675.81 270.30,675.93 271.80,675.81 ZM 158.97 105.56 C162.16,104.43 163.79,104.00 164.51,104.00 L 164.52 104.00 C163.88,104.00 161.84,104.59 158.97,105.56 ZM 533.59 179.84 C543.00,167.00 552.45,154.07 554.59,151.09 C555.02,150.50 555.59,149.71 556.28,148.78 C555.72,149.54 555.16,150.32 554.59,151.10 C552.45,154.07 543.00,167.00 533.59,179.84 ZM 220.15 540.69 C220.39,543.73 220.75,545.94 221.36,547.59 C220.74,545.94 220.38,543.73 220.15,540.69 ZM 98.44 651.53 C98.45,651.54 98.45,651.54 98.46,651.55 C98.34,651.49 98.24,651.43 98.16,651.38 C98.08,651.32 98.01,651.23 97.93,651.11 C98.08,651.24 98.25,651.39 98.44,651.53 ZM 738.65 724.99 C737.88,724.37 737.16,723.79 736.50,723.26 C735.54,722.48 734.09,721.31 732.32,719.89 C734.42,721.57 736.17,722.98 737.35,723.94 C737.79,724.29 738.22,724.64 738.65,724.99 Z" fill="rgba(237,237,237,1)"/>
<path d="M 763.50 744.13 C760.40,742.20 749.28,733.62 737.35,723.94 C733.58,720.88 723.97,713.20 716.00,706.88 C708.03,700.55 694.97,690.19 687.00,683.86 C679.03,677.53 670.19,670.58 667.38,668.43 C662.85,664.96 610.85,623.39 580.50,598.97 C566.39,587.62 535.84,563.39 525.06,555.00 C520.47,551.42 513.47,545.80 509.50,542.50 C505.54,539.20 493.15,529.30 481.97,520.50 C470.79,511.70 453.81,498.20 444.24,490.50 C421.27,472.02 422.32,472.76 420.15,473.45 C417.97,474.14 408.72,486.49 383.00,523.03 C372.83,537.49 362.44,552.06 359.93,555.41 C357.42,558.76 353.05,564.88 350.21,569.00 C347.38,573.12 341.52,581.45 337.20,587.50 C332.88,593.55 323.80,606.38 317.03,616.00 C302.68,636.38 304.14,634.47 303.45,633.79 C302.92,633.25 317.21,611.47 319.39,609.50 C320.67,608.35 327.48,598.46 330.67,593.13 C331.87,591.13 333.24,589.05 333.73,588.50 C334.91,587.15 346.95,570.48 354.32,560.00 C357.61,555.33 362.62,548.35 365.46,544.50 C374.07,532.81 374.38,532.11 372.60,527.88 C371.51,525.28 370.30,524.11 368.29,523.70 C366.75,523.39 362.68,520.41 359.22,517.07 C355.76,513.73 352.14,511.00 351.16,511.00 C349.55,511.00 345.92,515.13 340.50,523.15 C339.40,524.78 336.53,528.45 334.13,531.30 C331.73,534.16 328.94,538.31 327.93,540.52 C326.93,542.73 324.85,545.49 323.30,546.64 C321.76,547.80 318.02,552.88 315.00,557.94 C311.98,563.00 307.84,569.15 305.81,571.61 C303.78,574.07 301.10,577.75 299.86,579.79 C298.63,581.83 295.76,585.75 293.48,588.50 C291.21,591.25 288.48,594.94 287.42,596.70 C286.37,598.47 283.12,603.35 280.21,607.55 C277.29,611.75 274.68,616.38 274.39,617.84 C274.10,619.30 273.79,632.32 273.68,646.76 C273.54,667.67 273.76,672.92 274.77,672.53 C275.75,672.16 275.80,672.51 274.99,674.02 C273.55,676.71 271.53,676.62 242.84,672.55 C211.85,668.15 205.07,667.25 196.67,666.42 C192.22,665.98 190.19,665.41 190.83,664.77 C191.81,663.79 200.20,664.12 203.00,665.25 C204.52,665.87 212.95,656.27 217.07,649.25 C218.11,647.46 219.37,646.00 219.85,646.00 C220.33,646.00 222.01,644.09 223.59,641.75 C225.16,639.41 228.53,635.03 231.07,632.00 C233.62,628.97 235.98,625.38 236.32,624.00 C236.66,622.62 238.52,619.70 240.45,617.50 C242.38,615.30 243.97,612.94 243.98,612.26 C244.01,610.45 237.62,608.09 232.74,608.12 C230.41,608.14 225.80,607.70 222.50,607.15 C210.21,605.10 184.07,601.26 175.26,600.20 C164.56,598.92 165.50,606.53 165.82,523.23 C166.10,451.98 166.15,450.47 168.09,449.00 C169.19,448.17 171.91,446.04 174.14,444.25 C176.37,442.46 179.02,441.00 180.03,441.00 C181.04,441.00 182.78,439.71 183.91,438.13 C185.03,436.55 187.20,435.01 188.73,434.70 C190.27,434.40 192.86,432.97 194.51,431.53 C196.15,430.09 198.71,428.65 200.20,428.34 C201.68,428.03 203.67,426.92 204.60,425.89 C205.54,424.85 207.08,424.00 208.02,424.00 C208.96,424.00 210.87,423.10 212.27,422.00 C213.67,420.90 215.31,420.00 215.91,420.00 C216.67,420.00 217.00,412.32 217.00,394.69 C217.00,376.02 217.33,368.93 218.25,367.67 C219.25,366.30 219.44,379.43 219.18,434.23 C219.00,471.78 219.16,512.55 219.54,524.83 C220.40,552.82 219.47,551.22 236.50,554.02 C250.38,556.30 256.92,556.51 259.31,554.75 C261.10,553.43 261.90,552.36 288.24,515.76 C321.84,469.05 337.40,447.36 341.86,441.00 C344.36,437.42 348.34,432.10 350.70,429.16 C353.07,426.22 355.00,422.98 355.00,421.96 C355.00,420.94 352.91,418.39 350.35,416.30 C347.79,414.21 342.50,409.76 338.60,406.41 C334.69,403.06 327.23,396.98 322.00,392.89 C316.77,388.81 308.05,381.87 302.62,377.48 C297.18,373.09 290.14,367.48 286.97,365.00 C283.79,362.52 275.42,355.79 268.35,350.04 C235.95,323.67 224.82,315.13 223.52,315.63 C222.10,316.17 220.00,323.99 220.00,328.72 C220.00,330.16 219.69,331.03 219.32,330.66 C218.18,329.51 219.03,319.85 220.52,316.96 C223.33,311.53 224.36,311.98 243.35,326.95 C249.32,331.65 255.19,336.17 256.40,337.00 C257.62,337.83 259.71,339.55 261.05,340.84 C264.64,344.27 281.77,358.09 286.04,361.00 C288.05,362.38 291.23,364.75 293.10,366.29 C302.23,373.77 311.64,381.62 312.82,382.75 C313.55,383.44 314.45,384.00 314.83,384.00 C315.21,384.00 316.64,385.02 318.01,386.28 C319.38,387.53 323.42,390.78 327.00,393.50 C330.58,396.21 334.10,399.02 334.84,399.73 C335.57,400.45 337.82,402.26 339.84,403.77 C341.85,405.27 343.95,406.98 344.50,407.57 C345.05,408.15 347.92,410.61 350.89,413.03 C353.85,415.44 356.92,418.97 357.72,420.86 C359.99,426.30 371.99,437.00 375.82,437.00 C378.17,437.00 388.00,425.93 388.00,423.29 C388.00,422.83 390.92,419.41 394.50,415.69 C398.08,411.97 401.00,408.52 401.00,408.02 C401.00,407.52 403.41,404.28 406.35,400.81 C409.29,397.34 412.45,393.05 413.36,391.27 C414.95,388.20 414.94,387.94 413.16,386.27 C410.60,383.86 404.13,378.85 401.04,376.89 C399.64,376.00 394.90,372.03 390.50,368.06 C386.10,364.09 380.92,360.01 379.00,359.00 C377.08,357.99 372.80,354.65 369.50,351.58 C366.20,348.51 363.17,346.00 362.77,346.00 C362.37,346.00 357.75,342.29 352.52,337.75 C340.27,327.13 337.06,324.58 334.00,323.02 C331.67,321.84 328.62,319.23 322.15,312.91 C320.69,311.49 317.70,309.03 315.50,307.44 C313.30,305.86 309.02,302.50 306.00,299.98 C302.98,297.46 298.02,293.65 295.00,291.52 C291.98,289.39 287.92,285.92 286.00,283.80 C284.08,281.68 281.06,279.17 279.29,278.22 C276.39,276.67 269.07,270.77 263.50,265.50 C262.33,264.40 258.83,261.58 255.70,259.23 C252.58,256.87 247.20,252.35 243.76,249.17 C237.79,243.66 220.66,229.46 202.10,214.63 C197.37,210.85 191.02,205.63 188.00,203.01 C184.98,200.40 179.51,195.84 175.86,192.88 C172.21,189.92 164.81,183.90 159.42,179.50 C128.28,154.11 103.88,134.59 100.70,132.52 C99.16,131.52 98.26,130.35 98.70,129.91 C99.48,129.15 109.13,125.15 144.68,110.89 C154.13,107.10 163.06,104.00 164.53,104.00 C165.99,104.00 168.56,104.97 170.23,106.16 C173.57,108.55 243.65,164.57 259.37,177.43 C272.79,188.41 277.60,192.31 317.15,224.20 C336.04,239.44 361.62,260.10 374.00,270.10 C386.38,280.11 400.29,291.27 404.91,294.90 C409.54,298.53 416.74,304.33 420.91,307.79 C425.09,311.25 429.53,314.34 430.79,314.66 C434.20,315.52 435.30,314.30 453.56,289.39 C481.12,251.79 494.48,233.52 507.67,215.34 C512.53,208.66 524.19,192.68 533.59,179.84 C543.00,167.00 552.45,154.07 554.59,151.10 C567.16,133.73 576.45,121.86 576.76,122.79 C577.10,123.79 572.42,130.86 565.06,140.50 C563.38,142.70 559.10,148.55 555.54,153.50 C551.98,158.45 547.59,164.41 545.79,166.75 C543.98,169.09 542.39,171.34 542.26,171.75 C542.12,172.16 547.41,178.04 554.01,184.81 C566.93,198.07 568.24,200.69 563.87,204.60 C562.70,205.64 560.96,208.30 560.00,210.50 C559.04,212.70 557.30,215.36 556.13,216.40 C554.96,217.45 554.00,218.85 554.00,219.51 C554.00,220.17 552.52,222.69 550.72,225.11 C548.91,227.52 546.89,230.62 546.23,232.00 C545.56,233.38 544.49,235.22 543.85,236.11 C542.88,237.45 543.94,238.90 550.46,245.11 C554.73,249.17 559.21,252.77 560.40,253.11 C563.10,253.86 567.25,256.18 568.27,257.50 C568.75,258.13 569.37,257.94 569.93,257.00 C570.42,256.17 573.17,252.35 576.03,248.50 C578.90,244.65 583.78,237.71 586.87,233.09 C589.97,228.46 593.17,223.72 594.00,222.55 C596.49,219.02 606.61,206.79 610.84,202.18 C614.81,197.87 614.82,197.86 615.38,187.68 C615.70,182.08 616.15,168.35 616.39,157.16 C616.64,145.98 617.06,136.61 617.33,136.33 C618.21,135.46 641.40,138.17 644.50,139.52 C646.15,140.23 650.63,141.10 654.46,141.46 C658.28,141.81 661.88,142.48 662.46,142.95 C663.03,143.42 668.67,144.34 675.00,145.00 C681.33,145.67 687.17,146.56 688.00,147.00 C688.83,147.43 694.67,148.32 701.00,148.96 C707.33,149.61 714.08,150.53 716.00,151.02 C717.92,151.51 722.60,152.17 726.40,152.49 C730.19,152.82 734.01,153.46 734.90,153.93 C735.78,154.39 742.12,155.34 749.00,156.05 C755.88,156.75 762.72,157.93 764.20,158.66 C765.69,159.40 769.06,160.02 771.70,160.04 C776.50,160.09 784.40,161.80 786.75,163.32 C787.57,163.84 787.81,165.41 787.45,167.81 C787.14,169.84 786.48,175.32 785.98,180.00 C785.47,184.68 784.57,191.20 783.98,194.50 C783.38,197.80 782.48,203.88 781.97,208.00 C781.47,212.12 780.77,217.60 780.43,220.17 C779.87,224.36 780.06,224.99 782.27,226.44 C784.70,228.03 793.08,228.14 797.25,226.63 C798.21,226.28 799.64,225.80 800.43,225.56 C802.48,224.93 821.11,226.86 823.50,227.95 C824.60,228.46 828.09,229.15 831.25,229.51 C834.41,229.86 837.00,230.61 837.00,231.18 C837.00,231.81 835.72,231.98 833.75,231.61 C827.85,230.51 815.62,228.96 807.98,228.35 C801.52,227.83 800.25,228.00 798.98,229.53 C797.71,231.07 797.50,240.74 797.50,298.91 C797.50,451.80 796.99,530.00 796.00,530.00 C795.34,530.00 795.00,487.66 795.00,404.98 L 795.00 279.96 L 792.45 275.10 C791.06,272.42 788.98,269.39 787.85,268.36 C786.71,267.34 784.93,264.81 783.87,262.75 C782.82,260.69 780.19,257.83 778.03,256.40 C775.87,254.97 773.39,252.72 772.53,251.40 C771.66,250.08 770.62,249.00 770.21,249.00 C769.81,249.00 769.64,257.11 769.85,267.02 C770.13,280.68 769.89,285.83 768.86,288.27 C767.73,290.95 767.50,317.25 767.50,442.00 C767.50,524.78 767.28,627.04 767.00,669.25 C766.72,711.46 766.50,745.99 766.50,745.99 C766.50,745.99 765.15,745.15 763.50,744.13 ZM 693.00 568.00 C693.00,546.55 692.63,529.00 692.18,529.00 C691.15,529.00 669.19,511.75 650.50,496.25 C646.65,493.06 641.70,489.12 639.50,487.50 C637.30,485.88 634.60,483.71 633.50,482.68 C632.40,481.64 627.75,477.85 623.16,474.24 C613.72,466.83 612.56,466.98 613.48,475.50 C613.78,478.25 614.37,483.65 614.79,487.50 C615.21,491.35 616.14,495.55 616.85,496.82 C617.60,498.17 618.71,506.76 619.49,517.32 C620.23,527.32 621.36,537.53 622.00,540.00 C622.65,542.47 623.41,546.43 623.69,548.79 C624.24,553.38 626.76,556.46 635.14,562.81 C637.54,564.62 641.25,567.44 643.39,569.06 C645.53,570.68 647.74,572.00 648.32,572.00 C648.89,572.00 650.78,573.46 652.51,575.25 C657.40,580.30 675.15,595.32 687.38,604.77 C693.19,609.26 693.00,610.53 693.00,568.00 ZM 696.05 519.14 C696.08,517.69 696.10,448.77 696.10,366.00 C696.08,192.90 697.46,212.22 685.00,210.17 C672.04,208.03 665.84,207.10 654.00,205.50 C647.67,204.65 636.77,202.98 629.78,201.80 C619.73,200.11 616.53,199.89 614.55,200.80 C612.13,201.90 599.08,218.78 586.18,237.50 C582.77,242.45 574.79,253.70 568.46,262.50 C562.13,271.30 554.93,281.42 552.45,285.00 C549.98,288.58 542.81,298.70 536.52,307.50 C526.41,321.64 519.34,331.66 501.77,356.74 C496.11,364.82 495.84,367.51 500.25,371.66 C504.19,375.37 536.48,401.63 566.45,425.50 C574.05,431.55 583.24,438.98 586.88,442.02 C594.31,448.22 611.98,462.44 616.05,465.50 C617.52,466.60 633.52,479.39 651.61,493.92 C669.70,508.46 686.29,521.65 688.49,523.24 L 692.48 526.13 L 694.24 523.95 C695.21,522.76 696.02,520.59 696.05,519.14 ZM 182.50 664.27 C176.61,663.68 175.66,662.00 181.22,662.00 C183.76,662.00 186.55,662.27 187.42,662.61 C189.29,663.33 189.55,665.07 187.75,664.83 C187.06,664.74 184.70,664.48 182.50,664.27 ZM 171.57 662.10 C169.85,661.43 169.82,661.28 171.32,660.71 C173.25,659.97 176.00,660.79 176.00,662.11 C176.00,663.16 174.26,663.16 171.57,662.10 ZM 161.50 661.33 C152.20,660.16 151.11,658.27 160.17,659.00 C163.83,659.30 166.51,660.01 166.75,660.75 C166.98,661.44 166.57,661.93 165.83,661.85 C165.10,661.77 163.15,661.53 161.50,661.33 ZM 145.65 658.95 C138.85,657.81 138.52,656.84 145.02,657.10 C151.18,657.35 153.00,657.81 153.00,659.11 C153.00,660.11 152.49,660.10 145.65,658.95 ZM 131.25 657.28 C129.46,657.05 128.00,656.41 128.00,655.84 C128.00,655.21 129.65,655.02 132.25,655.36 C134.59,655.65 136.84,655.92 137.25,655.95 C137.66,655.98 138.00,656.45 138.00,657.00 C138.00,658.00 137.31,658.03 131.25,657.28 ZM 120.50 655.00 C118.81,654.28 119.00,654.13 121.69,654.07 C123.45,654.03 125.16,654.45 125.50,655.00 C126.24,656.20 123.29,656.20 120.50,655.00 ZM 110.50 654.27 C105.64,653.58 105.10,652.00 109.72,652.00 C114.33,652.00 117.00,652.77 117.00,654.11 C117.00,655.01 115.89,655.04 110.50,654.27 ZM 98.44 651.53 C97.37,650.72 97.03,650.05 97.67,650.03 C99.57,649.98 102.00,651.15 102.00,652.11 C102.00,653.42 100.64,653.20 98.44,651.53 ZM 293.00 648.32 C293.00,646.41 294.79,644.29 297.93,642.48 C298.72,642.03 298.06,643.42 296.47,645.58 C294.88,647.74 293.45,649.69 293.29,649.92 C293.13,650.15 293.00,649.43 293.00,648.32 ZM 96.00 537.94 C96.00,466.82 96.34,431.09 97.00,431.50 C98.38,432.35 98.38,645.00 97.00,645.00 C96.34,645.00 96.00,608.65 96.00,537.94 ZM 795.02 550.25 C795.01,542.07 795.38,537.00 796.00,537.00 C797.31,537.00 797.31,559.98 796.00,562.00 C795.35,563.01 795.03,559.17 795.02,550.25 ZM 218.13 353.63 C218.18,348.47 218.62,343.63 219.10,342.88 C219.62,342.04 219.98,345.75 219.98,352.25 C219.99,358.62 219.60,363.00 219.02,363.00 C218.44,363.00 218.08,359.15 218.13,353.63 ZM 850.50 233.94 C848.30,233.49 844.84,233.09 842.81,233.06 C840.78,233.03 838.81,232.50 838.43,231.89 C837.55,230.47 851.90,231.73 853.75,233.23 C854.60,233.92 855.00,233.90 855.00,233.15 C855.00,232.55 855.67,232.32 856.50,232.64 C857.33,232.95 858.00,233.62 858.00,234.11 C858.00,235.14 856.09,235.10 850.50,233.94 ZM 865.00 234.00 C865.00,233.45 865.46,233.00 866.02,233.00 C866.58,233.00 869.07,231.13 871.54,228.85 C874.02,226.57 876.32,224.99 876.66,225.33 C877.53,226.20 875.20,228.83 870.60,232.17 C866.48,235.16 865.00,235.64 865.00,234.00 ZM 892.00 211.81 C892.00,211.16 892.93,209.64 894.07,208.43 C896.05,206.32 896.14,205.16 896.07,182.86 C896.02,167.14 896.31,159.99 896.98,161.00 C897.55,161.87 897.98,171.53 897.98,184.02 C898.00,205.42 897.99,205.56 895.46,209.27 C892.80,213.19 892.00,213.78 892.00,211.81 ZM 755.91 125.99 C752.26,125.37 743.66,124.40 738.75,124.05 C738.34,124.02 738.00,123.55 738.00,123.00 C738.00,121.69 742.70,121.70 743.51,123.02 C743.86,123.58 744.57,123.76 745.11,123.43 C746.54,122.55 764.04,125.13 763.41,126.14 C762.82,127.10 762.43,127.09 755.91,125.99 ZM 727.00 122.28 C725.62,122.03 724.05,121.36 723.50,120.78 C722.81,120.06 723.54,119.93 725.88,120.37 C727.73,120.72 730.80,121.00 732.68,121.00 C734.72,121.00 735.87,121.41 735.50,122.00 C734.88,123.01 731.64,123.11 727.00,122.28 ZM 712.92 120.61 C712.69,120.40 710.50,119.95 708.05,119.61 C705.61,119.28 703.13,118.51 702.55,117.90 C701.79,117.10 702.60,116.95 705.50,117.36 C707.70,117.66 711.86,118.20 714.75,118.55 C720.55,119.25 721.92,121.00 716.67,121.00 C714.83,121.00 713.15,120.82 712.92,120.61 ZM 579.00 118.84 C579.00,116.55 589.61,103.57 590.42,104.87 C590.98,105.77 580.99,119.91 579.75,119.97 C579.34,119.98 579.00,119.48 579.00,118.84 ZM 689.59 117.25 C689.18,116.84 685.84,116.18 682.17,115.78 C675.33,115.04 656.42,112.56 647.50,111.23 C644.40,110.77 642.98,110.18 643.75,109.69 C644.87,108.96 654.82,110.12 685.63,114.54 C691.20,115.35 696.94,116.00 698.38,116.00 C699.82,116.00 701.00,116.45 701.00,117.00 C701.00,118.15 690.71,118.38 689.59,117.25 ZM 628.00 108.00 C628.00,107.45 629.15,107.00 630.56,107.00 C632.01,107.00 632.85,107.43 632.50,108.00 C632.16,108.55 631.01,109.00 629.94,109.00 C628.87,109.00 628.00,108.55 628.00,108.00 ZM 620.50 107.00 C620.16,106.45 620.84,106.00 622.00,106.00 C623.16,106.00 623.84,106.45 623.50,107.00 C623.16,107.55 622.49,108.00 622.00,108.00 C621.51,108.00 620.84,107.55 620.50,107.00 ZM 603.03 105.04 C602.22,104.53 601.77,103.92 602.03,103.68 C602.93,102.86 613.96,104.25 613.42,105.12 C612.71,106.28 604.90,106.22 603.03,105.04 Z" fill="rgba(239,239,239,1)"/>
</g>
</svg>