<?xml version="1.0" encoding="UTF-8"?>
<svg version="1.1" xmlns="http://www.w3.org/2000/svg" width="293" height="850">
<path d="M0 0 C3.41951369 0.89987202 4.33010197 2.78638438 6.375 5.625 C7.44785438 7.59758312 8.46859155 9.59933539 9.4375 11.625 C10.86560472 14.59485173 12.28732137 17.47901082 13.984375 20.3046875 C16.04866026 23.74902864 16.57219159 25.54970723 16.375 29.625 C14.56526574 32.48669802 12.52030082 35.08988729 10.44140625 37.76171875 C-2.98752925 56.36929857 -3.26022195 89.20876569 -5.375 111.375 C-5.44002716 112.04219055 -5.50505432 112.7093811 -5.572052 113.39678955 C-6.90465734 127.26762005 -6.80135973 140.47870892 -5.07226562 154.29296875 C-4.39980235 160.6878776 -4.67697465 165.81377347 -7.625 171.625 C-9.8993654 174.38915411 -12.40248085 176.07868563 -15.625 177.625 C-23.02121325 178.26814898 -30.55768123 171.62745986 -36.0234375 167.1953125 C-41.44108097 162.29197739 -44.29626363 156.57547539 -47.4375 150.0625 C-48.03543483 148.86069719 -48.63549002 147.65994724 -49.23754883 146.46020508 C-50.45844167 144.02360534 -51.67036717 141.58286687 -52.87597656 139.13867188 C-55.44045358 133.98680794 -58.12783943 128.90239818 -60.8125 123.8125 C-62.28025007 120.99752105 -63.7432591 118.18013245 -65.20458984 115.36181641 C-66.13948184 113.56048618 -67.07723336 111.7606367 -68.01806641 109.96240234 C-76.22265476 94.23718388 -83.03231099 78.07460117 -89.625 61.625 C-89.955 61.625 -90.285 61.625 -90.625 61.625 C-93.58125526 79.30929994 -96.12138444 97.00186911 -98.1875 114.8125 C-98.60250734 118.37634375 -99.01787316 121.94014563 -99.43359375 125.50390625 C-99.58433098 126.79625687 -99.58433098 126.79625687 -99.7381134 128.11471558 C-100.68131448 136.16816112 -101.68078067 144.21233023 -102.75 152.25 C-102.89638916 153.40395264 -103.04277832 154.55790527 -103.19360352 155.74682617 C-105.29194576 171.17704826 -105.29194576 171.17704826 -110.625 175.625 C-115.67753398 176.23878931 -120.67069231 175.78517631 -125.0859375 173.1640625 C-130.99532322 168.13339585 -133.75173376 163.26451139 -135.25 155.625 C-135.48976563 154.42875 -135.72953125 153.2325 -135.9765625 152 C-136.19054687 150.88625 -136.40453125 149.7725 -136.625 148.625 C-136.83640625 147.71492187 -137.0478125 146.80484375 -137.265625 145.8671875 C-137.76958713 142.72290201 -136.6953488 140.59819112 -135.625 137.625 C-135.24968554 135.29805036 -134.90582798 132.96523315 -134.625 130.625 C-132.975 130.955 -131.325 131.285 -129.625 131.625 C-125.71841766 113.2685849 -122.07457878 94.86545736 -118.48730469 76.44433594 C-117.74497389 72.63608733 -116.99592992 68.82925 -116.24121094 65.0234375 C-115.31801784 60.36759212 -114.40694501 55.70952248 -113.50415802 51.0496788 C-113.16228648 49.29562825 -112.81630608 47.54237267 -112.46587372 45.79001236 C-109.95397569 33.20689106 -108.61698385 21.42610297 -110.625 8.625 C-103.63390869 6.0236637 -103.63390869 6.0236637 -99.625 6.625 C-97.60451869 7.92708796 -95.60688345 9.26488391 -93.625 10.625 C-92.32438579 11.11604822 -91.01066137 11.57342095 -89.6875 12 C-83.83577084 14.0850989 -79.94620857 17.49401844 -76.6875 22.75 C-75.14370562 26.93765782 -75.59530131 31.1807763 -75.69921875 35.578125 C-75.48931389 44.19527189 -71.26053611 51.98740235 -67.625 59.625 C-66.56215424 61.91650633 -65.49968208 64.20818596 -64.4375 66.5 C-63.83129067 67.79062847 -63.22449567 69.08098198 -62.6171875 70.37109375 C-61.20446163 73.37437608 -59.81992759 76.38925587 -58.4453125 79.41015625 C-53.31526158 90.56150937 -47.58199316 101.18728628 -41.27124023 111.71850586 C-40.69704346 112.67764893 -40.12284668 113.63679199 -39.53125 114.625 C-38.76264648 115.8934375 -38.76264648 115.8934375 -37.97851562 117.1875 C-36.63289793 119.61077689 -35.59529262 122.03137773 -34.625 124.625 C-33.965 124.295 -33.305 123.965 -32.625 123.625 C-32.03130243 121.16610896 -31.56863562 118.78174822 -31.171875 116.2890625 C-30.9811441 115.14964706 -30.9811441 115.14964706 -30.78656006 113.98721313 C-29.45461036 105.88563684 -28.34470058 97.75223556 -27.23428345 89.61798096 C-25.10545674 74.10591709 -22.70990766 58.66027082 -19.9375 43.25 C-19.79324585 42.44133484 -19.6489917 41.63266968 -19.50036621 40.79949951 C-14.0546611 10.40455871 -14.0546611 10.40455871 -5.625 2.625 C-2.625 0.625 -2.625 0.625 0 0 Z " fill="#C3B37D" transform="translate(211.625,122.375)"/>
<path d="M0 0 C2.85783462 0.81487913 5.49316428 1.94217545 8.1875 3.1875 C8.87263672 3.47947266 9.55777344 3.77144531 10.26367188 4.07226562 C16.52418327 6.87413068 20.82113114 10.46209572 23.375 17 C23.88160156 18.2375 23.88160156 18.2375 24.3984375 19.5 C25.14512723 22.60312615 25.3577219 24.07271307 24 27 C16.856616 31.0729821 8.89492857 30.48880853 0.875 30.5625 C-8.21590567 30.67161732 -17.02404718 31.09165271 -26.00732422 32.57788086 C-28.72427895 32.96110934 -31.26206323 33.07907055 -34 33 C-34 33.66 -34 34.32 -34 35 C-33.4225 35.2475 -32.845 35.495 -32.25 35.75 C-28.82493113 37.65281604 -26.47068947 39.53915548 -25.24609375 43.33984375 C-24.9445461 46.59943027 -25.64551117 47.92831275 -27.25 50.75 C-31.72260908 58.69545849 -33.67678389 67.24745786 -35.4375 76.125 C-35.64922852 77.1874292 -35.86095703 78.2498584 -36.07910156 79.34448242 C-40.56464869 102.71539342 -43.31008686 126.39845194 -42.87304688 150.19726562 C-42.78627991 159.18530219 -42.78492925 167.92172497 -49 175 C-51.75 176.625 -51.75 176.625 -55 177 C-63.25261637 174.52421509 -68.403074 167.97958179 -73 161 C-74.13748769 158.12654254 -74.87547772 155.43511138 -75.48046875 152.41015625 C-75.94904139 149.73774459 -75.94904139 149.73774459 -77.75 146.5625 C-79 144 -79 144 -78.875 141.6875 C-78 140 -78 140 -75 139 C-74.19436362 136.89415562 -74.19436362 136.89415562 -73.8125 134.4375 C-73.57466797 133.19806641 -73.57466797 133.19806641 -73.33203125 131.93359375 C-73.22246094 131.29550781 -73.11289063 130.65742188 -73 130 C-72.01 130 -71.02 130 -70 130 C-68.11934108 116.96199847 -66.25694654 103.92147082 -64.40863037 90.87884521 C-64.01560432 88.10993415 -63.62058817 85.3413139 -63.22509766 82.57275391 C-62.62665536 78.37754054 -62.03720435 74.18115274 -61.45443726 69.98373413 C-61.2374496 68.43012667 -61.01765073 66.87690885 -60.79483032 65.3241272 C-59.53326119 56.51593476 -58.67330473 47.92326482 -59 39 C-62.98268198 39.90180751 -66.96034478 40.82414853 -70.9375 41.75 C-72.05447266 42.00265625 -73.17144531 42.2553125 -74.32226562 42.515625 C-80.26478862 43.90976529 -85.62003308 45.56803137 -91.12963867 48.18847656 C-95.04014426 49.88518986 -98.86630198 49.679512 -103 49 C-109.38400441 45.99576263 -114.9462964 39.81814793 -117.875 33.375 C-118.24625 32.26125 -118.6175 31.1475 -119 30 C-119.37125 29.030625 -119.7425 28.06125 -120.125 27.0625 C-119.91908565 22.01759831 -116.5647698 19.31819481 -113 16 C-110.9982301 14.27547053 -109.38898258 13.22103554 -107 12 C-104.625 12.25 -104.625 12.25 -103 13 C-103 13.66 -103 14.32 -103 15 C-93.44979643 16.17490202 -84.90282773 15.64241446 -75.4375 14.0625 C-74.04209282 13.83872701 -72.64658156 13.61560233 -71.25097656 13.39306641 C-66.49547481 12.62528921 -61.74774882 11.81413764 -57 11 C-56.07141174 10.84194885 -55.14282349 10.68389771 -54.18609619 10.52105713 C-48.19424453 9.5003415 -42.20591657 8.46136312 -36.22097778 7.40084839 C-34.24755781 7.0515628 -32.27366026 6.70496427 -30.29928589 6.3611145 C-27.51519981 5.87380013 -24.73398069 5.3725707 -21.953125 4.8671875 C-21.12118118 4.72352249 -20.28923737 4.57985748 -19.43208313 4.43183899 C-12.35550184 3.11768701 -7.40751284 -1.05675281 0 0 Z " fill="#C3B27C" transform="translate(198,341)"/>
<path d="M0 0 C7.4253219 -0.47649125 13.25189725 2.56092533 18.93359375 7.1640625 C23.1602603 11.14301233 26.06680292 14.67330302 27.62890625 20.296875 C27.71728193 24.53890744 26.61046712 26.49884295 23.81640625 29.484375 C16.3880076 37.61251675 15.26994999 49.83633553 13.31640625 60.296875 C13.01928791 61.8566896 12.72216875 63.41650405 12.42504883 64.97631836 C10.04863073 77.57401722 7.89807577 90.21003155 5.81640625 102.859375 C5.6695639 103.74391357 5.52272156 104.62845215 5.37142944 105.53979492 C3.35282127 117.75923581 1.7961385 129.96694453 0.62890625 142.296875 C1.59602539 142.21123291 2.56314453 142.12559082 3.55957031 142.03735352 C7.20505076 141.71461532 10.85056721 141.39228538 14.49609375 141.07006836 C16.06316064 140.93150497 17.6302182 140.7928361 19.19726562 140.65405273 C20.33131836 140.55362671 20.33131836 140.55362671 21.48828125 140.45117188 C22.23936157 140.38465424 22.99044189 140.3181366 23.76428223 140.24960327 C25.9969966 140.0527679 28.22993132 139.85858507 30.46289062 139.66455078 C33.0804531 139.43637264 35.69511372 139.19378942 38.31054688 138.94091797 C39.37982422 138.84053223 40.44910156 138.74014648 41.55078125 138.63671875 C42.46956055 138.54640381 43.38833984 138.45608887 44.33496094 138.36303711 C46.62890625 138.296875 46.62890625 138.296875 49.62890625 139.296875 C48.22516074 136.8236091 46.95951457 134.62748332 44.94140625 132.609375 C44.50828125 132.17625 44.07515625 131.743125 43.62890625 131.296875 C43.62890625 130.636875 43.62890625 129.976875 43.62890625 129.296875 C45.79858314 128.34221717 47.19219418 128.15286288 49.453125 128.8984375 C51.19738055 129.65557885 52.91517756 130.47296698 54.62890625 131.296875 C54.95890625 130.306875 55.28890625 129.316875 55.62890625 128.296875 C59.77995859 130.18371697 62.43827746 132.10624621 65.62890625 135.296875 C67.4194778 136.63913653 69.23347577 137.95056101 71.06640625 139.234375 C74.9684537 142.02824098 78.40128315 144.75690127 81.62890625 148.296875 C82.28890625 148.956875 82.94890625 149.616875 83.62890625 150.296875 C84.42133093 154.90399525 84.02999125 158.49470501 81.94140625 162.671875 C78.31840105 166.7844755 76.2254447 168.14482372 70.69140625 168.671875 C66.76452718 168.54312487 63.13988057 167.8035232 59.31640625 166.921875 C36.08346464 161.62225264 8.92144288 159.63349128 -12.18359375 172.109375 C-12.87066406 172.54894531 -13.55773437 172.98851562 -14.265625 173.44140625 C-17.02934409 174.56432736 -18.5505935 174.14894858 -21.37109375 173.296875 C-27.76874148 169.95897184 -32.32914086 164.37399689 -35.546875 157.94921875 C-37.22674313 152.54338717 -37.03334306 146.87582374 -36.37109375 141.296875 C-34.12109375 138.171875 -34.12109375 138.171875 -31.37109375 136.296875 C-28.01654551 133.40120739 -26.7254101 131.22771501 -25.66015625 126.94140625 C-25.38792236 125.86149414 -25.11568848 124.78158203 -24.83520508 123.66894531 C-24.55829834 122.49428711 -24.2813916 121.31962891 -23.99609375 120.109375 C-23.69791748 118.87413086 -23.39974121 117.63888672 -23.0925293 116.36621094 C-7.65579184 61.1939254 -7.65579184 61.1939254 -14.37109375 8.296875 C-15.03109375 7.306875 -15.69109375 6.316875 -16.37109375 5.296875 C-12.33014749 0.41294988 -5.91563242 0.74067226 0 0 Z " fill="#C3B27D" transform="translate(133.37109375,556.703125)"/>
<path d="M0 0 C1.09437668 -0.00362162 1.09437668 -0.00362162 2.21086198 -0.00731641 C4.65607194 -0.01295319 7.10102064 -0.00429062 9.54621887 0.00431824 C11.29885936 0.00324538 13.05149951 0.00130663 14.80413818 -0.00143433 C19.56418223 -0.00628409 24.32413262 0.00137389 29.08416533 0.01151872 C34.05917109 0.02029356 39.03417387 0.01854191 44.00918579 0.01815796 C52.36106436 0.01909463 60.7129066 0.02778038 69.06477356 0.04142761 C78.73397617 0.05716857 88.40313904 0.06242519 98.07235354 0.06169206 C107.36178211 0.06108274 116.65119767 0.06617835 125.94062233 0.07448387 C129.90034906 0.07802304 133.86007119 0.07984802 137.81979942 0.08037758 C142.47613173 0.0813786 147.13243038 0.08745541 151.7887516 0.09754372 C153.50248127 0.100476 155.21621482 0.10169262 156.9299469 0.10111618 C159.25907971 0.10062901 161.58811679 0.10624615 163.91723633 0.11352539 C165.22375247 0.11520123 166.53026861 0.11687708 167.87637615 0.11860371 C170.7681427 0.24723816 170.7681427 0.24723816 171.7681427 1.24723816 C173.093485 22.9516674 173.0161113 47.29571678 166.7681427 68.24723816 C164.2931427 68.74223816 164.2931427 68.74223816 161.7681427 69.24723816 C158.17297207 62.68214397 157.60319191 56.56185084 157.2056427 49.18473816 C157.16644714 48.45855286 157.12725159 47.73236755 157.08686829 46.98417664 C156.78143444 40.69407669 156.71566402 34.4228597 156.74079895 28.12614441 C156.74277283 27.16937805 156.7447467 26.21261169 156.7467804 25.22685242 C156.75186814 22.90030109 156.75901713 20.57377654 156.7681427 18.24723816 C155.92753957 18.25000354 155.08693644 18.25276892 154.22086048 18.2556181 C133.7733855 18.32185203 113.32592899 18.37150613 92.87836933 18.40267467 C82.99010683 18.41814792 73.1019159 18.43924621 63.21369934 18.47355652 C54.59579569 18.50344484 45.97794387 18.52280983 37.35998982 18.52950364 C32.79623606 18.53341686 28.2326306 18.54262299 23.66892433 18.56442833 C19.37373357 18.58478451 15.07875226 18.59107372 10.78351784 18.5865612 C9.20691286 18.58738679 7.63030091 18.59335768 6.05373764 18.60485458 C3.90073094 18.61978551 1.74851457 18.61619014 -0.4045105 18.60800171 C-2.21168564 18.61214978 -2.21168564 18.61214978 -4.05536938 18.61638165 C-7.58148835 18.20660711 -9.44169281 17.41608799 -12.2318573 15.24723816 C-14.07814505 11.17001937 -14.55745693 9.20594817 -13.1068573 4.93473816 C-9.56211562 -0.14605825 -5.97134672 -0.00248767 0 0 Z " fill="#C3B380" transform="translate(67.23185729980469,23.752761840820313)"/>
<path d="M0 0 C1.67542976 0.28604898 3.34385343 0.61781233 5 1 C8.33391907 9.18408626 8.75346416 17.27955456 9.1875 26 C9.26911094 27.42454095 9.3517865 28.84902132 9.43554688 30.2734375 C9.74563164 35.76331228 10.01946841 41.23853306 10.00849915 46.73852539 C10.00727208 47.53940079 10.00604502 48.34027618 10.00478077 49.16542053 C10.00320312 49.77083176 10.00162546 50.37624298 10 51 C10.84667866 50.99539104 11.69335732 50.99078207 12.5656929 50.98603344 C33.15464676 50.87567546 53.74354974 50.79290246 74.33273697 50.74093914 C84.28947817 50.71514296 94.24602212 50.67996545 104.20263672 50.62280273 C112.87949527 50.57301102 121.55621098 50.54071927 130.23320842 50.52955753 C134.82890294 50.52303157 139.42418879 50.5076646 144.0197525 50.47134972 C148.34376453 50.43745694 152.66719886 50.42693332 156.9913311 50.43446159 C158.57966436 50.43308402 160.16801658 50.42311115 161.75623512 50.40397263 C163.92318436 50.37913719 166.08794528 50.38505696 168.25494385 50.39872742 C169.46802341 50.39411845 170.68110298 50.38950949 171.93094254 50.38476086 C175 51 175 51 177.36297226 53.35007954 C179.2560457 56.41447113 179.92493043 58.39666079 180 62 C178.9375 64.75 178.9375 64.75 177 67 C172.4619625 68.9176993 168.54608182 69.25108732 163.64825439 69.25396729 C162.57074877 69.25864726 162.57074877 69.25864726 161.47147536 69.26342177 C159.07627649 69.27136795 156.68133335 69.26509155 154.28613281 69.25878906 C152.56437533 69.26150033 150.842619 69.26506203 149.12086487 69.26940918 C144.45385035 69.27851653 139.78692438 69.27499646 135.11990833 69.26865101 C130.23746821 69.26358573 125.35503564 69.26828363 120.47259521 69.27142334 C112.27810301 69.27506006 104.08364688 69.27027015 95.88916016 69.26074219 C86.40623188 69.24984368 76.92338952 69.25339451 67.4404633 69.264395 C59.30194208 69.27345894 51.16344677 69.27475797 43.02492213 69.26951766 C38.16238543 69.2663949 33.29988917 69.26599728 28.43735504 69.27259064 C23.87043145 69.27835101 19.3036192 69.27439136 14.73670769 69.26280212 C13.05725985 69.26014913 11.37780271 69.26093147 9.69835854 69.26532745 C7.41338121 69.2707589 5.12876508 69.26397858 2.84381104 69.25396729 C1.56293736 69.25321323 0.28206367 69.25245918 -1.03762436 69.25168228 C-4 69 -4 69 -6 67 C-6.47947609 62.91997814 -6.33061235 58.79214308 -6.3125 54.6875 C-6.30976074 53.44959717 -6.30702148 52.21169434 -6.30419922 50.9362793 C-5.81033709 5.81033709 -5.81033709 5.81033709 0 0 Z " fill="#C1B17E" transform="translate(58,729)"/>
<path d="M0 0 C1.09437668 -0.00362162 1.09437668 -0.00362162 2.21086198 -0.00731641 C4.65607194 -0.01295319 7.10102064 -0.00429062 9.54621887 0.00431824 C11.29885936 0.00324538 13.05149951 0.00130663 14.80413818 -0.00143433 C19.56418223 -0.00628409 24.32413262 0.00137389 29.08416533 0.01151872 C34.05917109 0.02029356 39.03417387 0.01854191 44.00918579 0.01815796 C52.36106436 0.01909463 60.7129066 0.02778038 69.06477356 0.04142761 C78.73397617 0.05716857 88.40313904 0.06242519 98.07235354 0.06169206 C107.36178211 0.06108274 116.65119767 0.06617835 125.94062233 0.07448387 C129.90034906 0.07802304 133.86007119 0.07984802 137.81979942 0.08037758 C142.47613173 0.0813786 147.13243038 0.08745541 151.7887516 0.09754372 C153.50248127 0.100476 155.21621482 0.10169262 156.9299469 0.10111618 C159.25907971 0.10062901 161.58811679 0.10624615 163.91723633 0.11352539 C165.22375247 0.11520123 166.53026861 0.11687708 167.87637615 0.11860371 C170.7681427 0.24723816 170.7681427 0.24723816 171.7681427 1.24723816 C171.85581382 3.31985892 171.87510143 5.3954411 171.86579895 7.46989441 C171.86257629 8.729953 171.85935364 9.9900116 171.85603333 11.28825378 C171.84767673 12.62874925 171.83921177 13.96924404 171.8306427 15.30973816 C171.8256293 16.65413758 171.82106612 17.99853876 171.81697083 19.34294128 C171.80513758 22.64441756 171.78865241 25.94580619 171.7681427 29.24723816 C171.1081427 29.24723816 170.4481427 29.24723816 169.7681427 29.24723816 C169.73915454 25.30975357 169.72134806 21.37229637 169.7056427 17.43473816 C169.69726379 16.31518738 169.68888489 15.1956366 169.68025208 14.04216003 C169.67702942 12.9690155 169.67380676 11.89587097 169.67048645 10.79020691 C169.66524963 9.80044861 169.66001282 8.81069031 169.65461731 7.79093933 C169.7681427 5.24723816 169.7681427 5.24723816 170.7681427 2.24723816 C111.3681427 2.57723816 51.9681427 2.90723816 -9.2318573 3.24723816 C-10.43458549 5.65269454 -10.33257202 7.19720769 -10.2943573 9.87223816 C-10.28533386 10.68950378 -10.27631042 11.50676941 -10.26701355 12.34880066 C-10.25541199 12.97528503 -10.24381042 13.60176941 -10.2318573 14.24723816 C-7.9218573 14.90723816 -5.6118573 15.56723816 -3.2318573 16.24723816 C-3.2318573 16.90723816 -3.2318573 17.56723816 -3.2318573 18.24723816 C-9.68200393 17.76043464 -9.68200393 17.76043464 -12.1068573 15.49723816 C-13.4014563 12.90804016 -14.09338257 11.1552075 -14.2318573 8.24723816 C-12.26553282 2.96920929 -12.26553282 2.96920929 -9.57056713 1.08690929 C-6.31623362 -0.08149983 -3.45710098 -0.00144023 0 0 Z " fill="#B0A380" transform="translate(67.23185729980469,23.752761840820313)"/>
<path d="M0 0 C0.66 0 1.32 0 2 0 C2.20621571 5.59073712 2.06735438 10.53254475 0.5078125 15.9140625 C-0.29296364 19.20340448 -0.49834896 22.52925363 -0.75390625 25.8984375 C-1 28 -1 28 -2 30 C-2.99 30.33 -3.98 30.66 -5 31 C-5.495 32.485 -5.495 32.485 -6 34 C-6.66 34 -7.32 34 -8 34 C-8 35.32 -8 36.64 -8 38 C-7.34 38.33 -6.68 38.66 -6 39 C-5.87625 39.680625 -5.7525 40.36125 -5.625 41.0625 C-4.45702197 46.55199675 -2.01753768 51.1086677 2 55 C2.66 55.99 3.32 56.98 4 58 C6.30201432 60.44153034 7.93249627 61.88357761 11.328125 62.25390625 C13.56560517 62.2503882 15.76978763 62.17491862 18 62 C21.48614864 52.93601354 21.13423574 43.50042657 21.0625 33.9375 C21.05798828 32.78572266 21.05347656 31.63394531 21.04882812 30.44726562 C21.03714426 27.63145482 21.02076281 24.81575602 21 22 C21.66 22 22.32 22 23 22 C24.61997144 34.75727511 26.25092471 49.64996931 20.25 61.4375 C17.50989203 64.55817852 16.13961859 65.5223517 12 66 C3.74738363 63.52421509 -1.403074 56.97958179 -6 50 C-7.13748769 47.12654254 -7.87547772 44.43511138 -8.48046875 41.41015625 C-8.94904139 38.73774459 -8.94904139 38.73774459 -10.75 35.5625 C-12 33 -12 33 -11.875 30.6875 C-11 29 -11 29 -8 28 C-7.19436362 25.89415562 -7.19436362 25.89415562 -6.8125 23.4375 C-6.65394531 22.61121094 -6.49539062 21.78492188 -6.33203125 20.93359375 C-6.22246094 20.29550781 -6.11289063 19.65742188 -6 19 C-5.01 19 -4.02 19 -3 19 C-2.01 12.73 -1.02 6.46 0 0 Z " fill="#AAA181" transform="translate(131,452)"/>
<path d="M0 0 C0.68637039 -0.00817749 1.37274078 -0.01635498 2.07991028 -0.02478027 C4.35485967 -0.04962508 6.62974677 -0.06614663 8.90478516 -0.08056641 C9.68127033 -0.08589008 10.45775551 -0.09121376 11.25777054 -0.09669876 C15.36666121 -0.12342472 19.47552153 -0.14280247 23.58447266 -0.15722656 C27.830736 -0.17388535 32.07622483 -0.21867386 36.32219505 -0.26959801 C39.58557032 -0.30323183 42.84876071 -0.31479956 46.11229324 -0.32045364 C47.67763828 -0.32717552 49.24297076 -0.34242209 50.80814743 -0.36634445 C52.99904551 -0.39792327 55.18784089 -0.39804556 57.37890625 -0.390625 C58.62529877 -0.39871185 59.87169128 -0.40679871 61.15585327 -0.41513062 C64.31884766 0.19287109 64.31884766 0.19287109 66.76821899 2.55355835 C68.31884766 5.19287109 68.31884766 5.19287109 68.06884766 8.00537109 C67.69759766 9.08818359 67.69759766 9.08818359 67.31884766 10.19287109 C66.32884766 9.69787109 66.32884766 9.69787109 65.31884766 9.19287109 C65.31884766 7.87287109 65.31884766 6.55287109 65.31884766 5.19287109 C62.57327222 4.27767928 61.02398069 4.07490842 58.20458984 4.09521484 C56.94491394 4.10010925 56.94491394 4.10010925 55.65979004 4.10510254 C54.27672668 4.11761047 54.27672668 4.11761047 52.86572266 4.13037109 C50.8295905 4.13899133 48.79345764 4.14744644 46.75732422 4.15576172 C45.66939575 4.16196533 44.58146729 4.16816895 43.46057129 4.17456055 C20.82359269 4.29676846 -1.79835224 4.07933883 -24.43115234 3.69287109 C-25.14018204 3.68084656 -25.84921173 3.66882202 -26.57972717 3.65643311 C-35.28032689 3.50872443 -43.98080162 3.35463889 -52.68115234 3.19287109 C-52.68115234 2.86287109 -52.68115234 2.53287109 -52.68115234 2.19287109 C-52.13435822 2.18256363 -51.58756409 2.17225616 -51.02420044 2.16163635 C-45.3467385 2.05367781 -39.6694387 1.93907135 -33.9921875 1.82055664 C-31.87177921 1.77717357 -29.75133523 1.73550102 -27.63085938 1.69555664 C-24.58761827 1.63793567 -21.54455745 1.57421784 -18.50146484 1.50927734 C-17.07327927 1.4842086 -17.07327927 1.4842086 -15.61624146 1.45863342 C-14.73547943 1.4386882 -13.85471741 1.41874298 -12.94726562 1.39819336 C-11.78144455 1.37487694 -11.78144455 1.37487694 -10.59207153 1.35108948 C-6.92915686 1.04781112 -3.91280705 0.04042437 0 0 Z " fill="#C1B68F" transform="translate(168.68115234375,779.80712890625)"/>
<path d="M0 0 C0.495 0.99 0.495 0.99 1 2 C1.99 2.33 2.98 2.66 4 3 C4 3.66 4 4.32 4 5 C5.14597656 5.06058594 6.29195312 5.12117187 7.47265625 5.18359375 C9.00261297 5.26806989 10.53256041 5.35271427 12.0625 5.4375 C12.81466797 5.47681641 13.56683594 5.51613281 14.34179688 5.55664062 C18.94154422 5.81550087 23.47466042 6.11140926 28 7 C28.495 7.99 28.495 7.99 29 9 C27.97398682 8.90912109 27.97398682 8.90912109 26.92724609 8.81640625 C-3.24236621 6.17778942 -3.24236621 6.17778942 -33 11 C-32.67 10.01 -32.34 9.02 -32 8 C-25.82228252 5.31341123 -18.58386134 5.77848691 -12 6 C-12.33 4.68 -12.66 3.36 -13 2 C-8.34462607 1.16203269 -4.62921525 0.9838308 0 2 C0 1.34 0 0.68 0 0 Z " fill="#B7AB86" transform="translate(161,713)"/>
<path d="M0 0 C2.94002072 0.87977637 5.66293644 2.07175672 8.4375 3.375 C9.15615234 3.69210937 9.87480469 4.00921875 10.61523438 4.3359375 C15.85558322 6.71116644 15.85558322 6.71116644 17 9 C14.36 8.34 11.72 7.68 9 7 C9 7.99 9 8.98 9 10 C8.34 9.67 7.68 9.34 7 9 C7.33 8.34 7.66 7.68 8 7 C6.68 7.33 5.36 7.66 4 8 C4 7.01 4 6.02 4 5 C1.32356043 4.10785348 -0.25384378 3.86459789 -3 3.875 C-3.680625 3.87242187 -4.36125 3.86984375 -5.0625 3.8671875 C-7.21874781 3.93368874 -7.21874781 3.93368874 -10 5 C-10.99 5.33 -11.98 5.66 -13 6 C-13 6.66 -13 7.32 -13 8 C-13.66 8 -14.32 8 -15 8 C-15 7.01 -15 6.02 -15 5 C-15.9075 5.474375 -16.815 5.94875 -17.75 6.4375 C-22.48704456 8.71492527 -25.98957478 9.11967854 -31.25 9.0625 C-32.32765625 9.05347656 -33.4053125 9.04445313 -34.515625 9.03515625 C-35.33546875 9.02355469 -36.1553125 9.01195312 -37 9 C-34.05287901 7.03525267 -32.67308183 6.59632035 -29.2890625 6.03515625 C-27.91621094 5.79442383 -27.91621094 5.79442383 -26.515625 5.54882812 C-24.59677657 5.22599484 -22.67750602 4.90566006 -20.7578125 4.58789062 C-15.30027858 3.67496365 -15.30027858 3.67496365 -10.3359375 1.37109375 C-6.93337886 -0.62606023 -3.79457104 -0.56029552 0 0 Z " fill="#BDB28B" transform="translate(198,341)"/>
<path d="M0 0 C2.0625 0.4375 2.0625 0.4375 4 1 C-0.47446719 3.56321349 -3.73564329 4.38271693 -8.875 4.44140625 C-10.19113281 4.46783203 -11.50726563 4.49425781 -12.86328125 4.52148438 C-14.24217547 4.53631996 -15.62108274 4.54998802 -17 4.5625 C-26.11630548 4.67110581 -34.9944028 5.08448724 -44.01171875 6.57788086 C-46.72717484 6.96146122 -49.26348502 7.07901116 -52 7 C-52 7.66 -52 8.32 -52 9 C-50.68 9.66 -49.36 10.32 -48 11 C-48.99 11.495 -48.99 11.495 -50 12 C-52.03833424 10.7260411 -54.03852126 9.38938077 -56 8 C-56 7.34 -56 6.68 -56 6 C-54.98679688 5.80083984 -54.98679688 5.80083984 -53.953125 5.59765625 C-52.61507812 5.33275391 -52.61507812 5.33275391 -51.25 5.0625 C-50.36828125 4.88847656 -49.4865625 4.71445312 -48.578125 4.53515625 C-47.08072454 4.22433222 -45.5871081 3.88995236 -44.109375 3.49609375 C-37.77302551 2.00587822 -31.35077048 1.7232302 -24.875 1.4375 C-23.95299805 1.39431641 -23.03099609 1.35113281 -22.08105469 1.30664062 C-15.77842243 1.02887509 -9.51150909 0.93309725 -3.203125 1.0625 C-1.02413776 1.25306133 -1.02413776 1.25306133 0 0 Z " fill="#B1A57F" transform="translate(216,367)"/>
<path d="M0 0 C0.99 0.33 1.98 0.66 3 1 C3 2.32 3 3.64 3 5 C2.34 5 1.68 5 1 5 C1.20625 6.010625 1.4125 7.02125 1.625 8.0625 C1.96914324 11.67600404 1.61802022 13.41374265 0.58789062 16.75854492 C-0.73074221 21.7861064 -1.31113406 26.98828533 -2.0625 32.125 C-2.40658926 34.44024746 -2.75160624 36.75535729 -3.09765625 39.0703125 C-3.24726807 40.08883301 -3.39687988 41.10735352 -3.55102539 42.15673828 C-4.31059466 46.96693063 -5.3938488 51.39569989 -7 56 C-7.99 56 -8.98 56 -10 56 C-10 55.01 -10 54.02 -10 53 C-9.01 52.505 -9.01 52.505 -8 52 C-7.40641011 49.51940297 -6.94166949 47.11143035 -6.54296875 44.59765625 C-6.35301582 43.46058983 -6.35301582 43.46058983 -6.15922546 42.30055237 C-4.74334579 33.69954754 -3.51827516 25.06998047 -2.3125 16.4375 C-2.08555461 14.82873819 -1.85834208 13.22001404 -1.63085938 11.61132812 C-1.08417905 7.74130982 -0.54104641 3.8708098 0 0 Z " fill="#ADA27C" transform="translate(187,194)"/>
<path d="M0 0 C0.66 0 1.32 0 2 0 C0.43901847 18.05398374 -1.76289051 36.02008728 -4 54 C-4.66 54 -5.32 54 -6 54 C-5.86186975 49.85387186 -5.71321141 45.70818838 -5.5625 41.5625 C-5.52318359 40.37849609 -5.48386719 39.19449219 -5.44335938 37.97460938 C-5.38051758 36.28754883 -5.38051758 36.28754883 -5.31640625 34.56640625 C-5.27974854 33.52427979 -5.24309082 32.48215332 -5.20532227 31.40844727 C-5 29 -5 29 -4 28 C-3.62238734 25.41571333 -3.29229374 22.84410696 -3 20.25 C-2.48715954 15.79469849 -1.93360713 11.39026823 -1 7 C-0.65596692 4.66822025 -0.32050798 2.33512959 0 0 Z " fill="#B3A783" transform="translate(114,212)"/>
<path d="M0 0 C0.66 0 1.32 0 2 0 C-0.78988196 26.17740304 -0.78988196 26.17740304 -2.5390625 34.59375 C-2.99616028 36.97995537 -3.17231345 39.26427536 -3.3125 41.6875 C-3.81498437 47.25670174 -5.68901164 51.94807195 -8 57 C-9.25678614 53.22964157 -8.64138732 51.12451641 -7.890625 47.2265625 C-7.76396454 46.55426102 -7.63730408 45.88195953 -7.50680542 45.18928528 C-7.23481585 43.7473471 -6.95967539 42.30600039 -6.68170166 40.86520386 C-5.96104031 37.12551857 -5.26468378 33.38136205 -4.5703125 29.63671875 C-4.43265472 28.89577469 -4.29499695 28.15483063 -4.15316772 27.39143372 C-2.48018926 18.30194445 -1.18851429 9.16407069 0 0 Z " fill="#B1A683" transform="translate(122,607)"/>
<path d="M0 0 C0.33 0.99 0.66 1.98 1 3 C16.84 3 32.68 3 49 3 C49 3.33 49 3.66 49 4 C42.94803814 4.75297447 37.0446451 5.15918463 30.94921875 5.16796875 C29.71737602 5.17296135 29.71737602 5.17296135 28.46064758 5.17805481 C26.742244 5.1830757 25.02383083 5.18546465 23.30541992 5.18530273 C20.67676051 5.18750901 18.04850841 5.20576909 15.41992188 5.22460938 C13.74218892 5.22754039 12.064454 5.22952714 10.38671875 5.23046875 C9.21323128 5.24124702 9.21323128 5.24124702 8.01603699 5.25224304 C4.19914633 5.23618813 1.23359774 5.15947627 -2 3 C-1.34 2.01 -0.68 1.02 0 0 Z " fill="#B3AA80" transform="translate(67,777)"/>
<path d="M0 0 C0.66 0 1.32 0 2 0 C2 1.98 2 3.96 2 6 C1.34 6 0.68 6 0 6 C0.103125 6.680625 0.20625 7.36125 0.3125 8.0625 C-0.12944992 12.21682923 -2.13582408 15.00768989 -5 18 C-6.98 18.99 -6.98 18.99 -9 20 C-9 25.61 -9 31.22 -9 37 C-9.66 36.67 -10.32 36.34 -11 36 C-11.5092382 33.60658048 -11.80756454 31.42731089 -12 29 C-12.07734375 28.17113281 -12.1546875 27.34226562 -12.234375 26.48828125 C-12.59632867 19.76197552 -12.59632867 19.76197552 -9.75 16.125 C-8.8425 15.42375 -7.935 14.7225 -7 14 C-2.30139568 10.26875539 -1.41320486 5.60999503 0 0 Z " fill="#B0A986" transform="translate(109,679)"/>
<path d="M0 0 C0.99 0.33 1.98 0.66 3 1 C2.40316406 1.89847656 1.80632812 2.79695312 1.19140625 3.72265625 C-1.78272171 8.94145851 -2.80898441 14.61490748 -4.0625 20.4375 C-4.31854004 21.58589355 -4.57458008 22.73428711 -4.83837891 23.91748047 C-6.74888131 32.57737073 -8.49498609 41.26035782 -10 50 C-10.66 49.67 -11.32 49.34 -12 49 C-9.83863719 31.92822187 -7.28487457 15.76399088 0 0 Z " fill="#ADA480" transform="translate(153,586)"/>
<path d="M0 0 C0.99 0.33 1.98 0.66 3 1 C2.85433594 1.84433594 2.70867187 2.68867188 2.55859375 3.55859375 C1.79788915 8.24517243 1.20603072 12.95164459 0.59765625 17.66015625 C0 21 0 21 -1.05859375 23.6015625 C-2.13379575 26.34087382 -2.20308761 28.38421467 -2.125 31.3125 C-2.10695312 32.19550781 -2.08890625 33.07851562 -2.0703125 33.98828125 C-2.04710937 34.65214844 -2.02390625 35.31601563 -2 36 C-3.485 36.495 -3.485 36.495 -5 37 C-5.33 37.99 -5.66 38.98 -6 40 C-5.44694614 30.94544839 -4.09807379 22.16221117 -2.4375 13.25 C-2.20353516 11.96867188 -1.96957031 10.68734375 -1.72851562 9.3671875 C-1.1574513 6.24381526 -0.58119835 3.12149946 0 0 Z " fill="#B2A67F" transform="translate(194,153)"/>
<path d="M0 0 C2.02048131 1.30208796 4.01811655 2.63988391 6 4 C7.30061421 4.49104822 8.61433863 4.94842095 9.9375 5.375 C14.3606805 6.93161929 17.96594559 9.40310651 21 13 C21.69140625 15.19140625 21.69140625 15.19140625 22 17 C21.32904297 16.40251953 21.32904297 16.40251953 20.64453125 15.79296875 C16.1522588 11.85624385 12.32198463 8.61104859 6.4375 7.0625 C2.8361183 5.94934566 1.37673525 4.8520823 -1 2 C-1.33 2.66 -1.66 3.32 -2 4 C-4.31 3.67 -6.62 3.34 -9 3 C-9 4.98 -9 6.96 -9 9 C-11 7 -11 7 -11.125 4.375 C-11.08375 3.59125 -11.0425 2.8075 -11 2 C-4.00890869 -0.6013363 -4.00890869 -0.6013363 0 0 Z " fill="#AFA584" transform="translate(112,129)"/>
<path d="M0 0 C3.37208519 0.88739084 4.47167207 2.80525492 6.375 5.625 C6.045 6.285 5.715 6.945 5.375 7.625 C3.0609378 8.35575648 0.72671131 9.02638258 -1.625 9.625 C-1.625 7.645 -1.625 5.665 -1.625 3.625 C-6.22006182 7.17515735 -9.38954254 10.10210509 -11.625 15.625 C-12.285 14.965 -12.945 14.305 -13.625 13.625 C-6.90633097 1.64436452 -6.90633097 1.64436452 0 0 Z " fill="#B1A68C" transform="translate(211.625,122.375)"/>
<path d="M0 0 C2.3025263 2.21555214 4.08071592 4.42411873 6 7 C5.34 7.33 4.68 7.66 4 8 C3.443125 7.195625 2.88625 6.39125 2.3125 5.5625 C-0.21864487 2.75771784 -1.32579134 2.30618405 -5 2 C-5.33 0.68 -5.66 -0.64 -6 -2 C-13.42686315 -2.10331031 -20.63512596 -1.99862699 -28 -1 C-28.33 -1.66 -28.66 -2.32 -29 -3 C-18.00129185 -5.57172299 -9.75425945 -6.66788633 0 0 Z " fill="#B2A886" transform="translate(150,562)"/>
<path d="M0 0 C0.66 0 1.32 0 2 0 C1.56615452 7.03128878 0.25678003 13.329015 -2 20 C-3.98 20 -5.96 20 -8 20 C-7.814375 20.9075 -7.62875 21.815 -7.4375 22.75 C-7.04265379 25.68314324 -7.05308428 27.2644657 -8 30 C-8.66 30 -9.32 30 -10 30 C-10 30.66 -10 31.32 -10 32 C-10.66 32 -11.32 32 -12 32 C-11.01 27.05 -10.02 22.1 -9 17 C-7.35 17.33 -5.7 17.66 -4 18 C-2.68 12.06 -1.36 6.12 0 0 Z " fill="#ADA281" transform="translate(86,236)"/>
<path d="M0 0 C0.66 0 1.32 0 2 0 C1.33432507 11.08693071 -0.36035171 22.02376553 -2 33 C-2.66 33 -3.32 33 -4 33 C-3.59591214 21.7412761 -2.35785057 11.01813189 0 0 Z " fill="#B0A682" transform="translate(209,192)"/>
<path d="M0 0 C2.0625 0.4375 2.0625 0.4375 4 1 C-0.37736366 3.50011482 -3.46391569 4.3648012 -8.4921875 4.29296875 C-9.69101563 4.28330078 -10.88984375 4.27363281 -12.125 4.26367188 C-13.3625 4.23853516 -14.6 4.21339844 -15.875 4.1875 C-17.13570312 4.17396484 -18.39640625 4.16042969 -19.6953125 4.14648438 C-22.79731454 4.11123435 -25.89843534 4.06195504 -29 4 C-28.67 3.34 -28.34 2.68 -28 2 C-25.296875 1.5859375 -25.296875 1.5859375 -21.75 1.375 C-20.49316406 1.30023438 -19.23632812 1.22546875 -17.94140625 1.1484375 C-13.10526535 0.96630335 -8.28731264 0.96912304 -3.44921875 1.0625 C-1.05311161 1.28272439 -1.05311161 1.28272439 0 0 Z " fill="#B5AD87" transform="translate(216,367)"/>
<path d="M0 0 C-0.33 8.91 -0.66 17.82 -1 27 C-0.34 27.33 0.32 27.66 1 28 C-0.32 28 -1.64 28 -3 28 C-3.80866672 24.52300537 -4.07549313 21.47837556 -3.87890625 17.91796875 C-3.83056641 16.98662109 -3.78222656 16.05527344 -3.73242188 15.09570312 C-3.67634766 14.13599609 -3.62027344 13.17628906 -3.5625 12.1875 C-3.51029297 11.20845703 -3.45808594 10.22941406 -3.40429688 9.22070312 C-3.27512661 6.8134391 -3.14018357 4.40664362 -3 2 C-3.99 1.67 -4.98 1.34 -6 1 C-3 0 -3 0 0 0 Z " fill="#C8B88B" transform="translate(238,26)"/>
<path d="M0 0 C0.33 0 0.66 0 1 0 C0.25328168 11.69203687 -0.85351587 23.34157478 -2 35 C-3.94834163 31.41460738 -4.24250511 28.91788103 -4.1875 24.8125 C-4.18105469 23.74644531 -4.17460937 22.68039062 -4.16796875 21.58203125 C-4 19 -4 19 -3 18 C-2.92794489 16.31391034 -2.91613932 14.62499341 -2.9375 12.9375 C-2.94652344 12.01839844 -2.95554688 11.09929687 -2.96484375 10.15234375 C-2.97644531 9.44207031 -2.98804688 8.73179687 -3 8 C-2.34 8 -1.68 8 -1 8 C-1.020625 6.865625 -1.04125 5.73125 -1.0625 4.5625 C-1 1 -1 1 0 0 Z " fill="#B0A680" transform="translate(157,438)"/>
<path d="M0 0 C2 1 2 1 3.25 3.875 C5.34778 7.62103572 7.14401995 8.32348694 11 10 C11.33 10.66 11.66 11.32 12 12 C16.25571848 11.51639563 18.74412819 10.79074727 22 8 C22.66 7.67 23.32 7.34 24 7 C24.99 7.66 25.98 8.32 27 9 C25.28133783 10.0384211 23.54955402 11.05514635 21.8125 12.0625 C20.84957031 12.63097656 19.88664062 13.19945312 18.89453125 13.78515625 C15.61334979 15.16227829 14.31995231 15.12710986 11 14 C6.23913258 11.32201208 3.12130522 8.40654855 0 4 C0 2.68 0 1.36 0 0 Z " fill="#B3A882" transform="translate(101,716)"/>
<path d="M0 0 C0.81210938 0.29003906 1.62421875 0.58007812 2.4609375 0.87890625 C3.27820313 1.16636719 4.09546875 1.45382812 4.9375 1.75 C5.56398437 1.97816406 6.19046875 2.20632813 6.8359375 2.44140625 C7.1659375 1.45140625 7.4959375 0.46140625 7.8359375 -0.55859375 C9.8159375 0.43140625 11.7959375 1.42140625 13.8359375 2.44140625 C12.8459375 2.93640625 12.8459375 2.93640625 11.8359375 3.44140625 C11.1759375 3.11140625 10.5159375 2.78140625 9.8359375 2.44140625 C9.5059375 3.10140625 9.1759375 3.76140625 8.8359375 4.44140625 C9.8259375 4.77140625 10.8159375 5.10140625 11.8359375 5.44140625 C11.8359375 6.10140625 11.8359375 6.76140625 11.8359375 7.44140625 C11.1346875 7.15265625 10.4334375 6.86390625 9.7109375 6.56640625 C6.78141247 5.42007037 3.82672097 4.41514971 0.8359375 3.44140625 C1.8259375 5.09140625 2.8159375 6.74140625 3.8359375 8.44140625 C0.47413976 7.00063579 -1.75562518 5.19390604 -4.1640625 2.44140625 C-4.1640625 1.78140625 -4.1640625 1.12140625 -4.1640625 0.44140625 C-2.1640625 -0.55859375 -2.1640625 -0.55859375 0 0 Z " fill="#B8AB88" transform="translate(181.1640625,685.55859375)"/>
<path d="M0 0 C0 0.66 0 1.32 0 2 C-0.84304687 2.06058594 -1.68609375 2.12117187 -2.5546875 2.18359375 C-3.65039062 2.26738281 -4.74609375 2.35117187 -5.875 2.4375 C-6.96554688 2.51871094 -8.05609375 2.59992187 -9.1796875 2.68359375 C-11.94728971 2.83001703 -11.94728971 2.83001703 -14 4 C-15.43679032 4.04516433 -16.87551946 4.03864149 -18.3125 4 C-21.01988346 3.95661244 -23.15281893 4.03395976 -25.8125 4.625 C-28.52977662 5.09081885 -29.70843405 4.44283782 -32 3 C-30.36607806 1.36607806 -28.40708208 1.66002886 -26.15234375 1.46484375 C-25.15396484 1.37783203 -24.15558594 1.29082031 -23.12695312 1.20117188 C-22.07443359 1.11416016 -21.02191406 1.02714844 -19.9375 0.9375 C-18.91205078 0.84662109 -17.88660156 0.75574219 -16.83007812 0.66210938 C-11.19684196 0.1827617 -5.6530286 -0.10179523 0 0 Z " fill="#AFA481" transform="translate(167,697)"/>
<path d="M0 0 C3 1 3 1 4.1875 2.875 C5 5 5 5 5 8 C5.66 8 6.32 8 7 8 C7.33 9.98 7.66 11.96 8 14 C8.66 14 9.32 14 10 14 C11.4606285 16.64738916 12 17.89448334 12 21 C12.66 21.33 13.32 21.66 14 22 C14.625 24.5625 14.625 24.5625 15 27 C14.34 27 13.68 27 13 27 C12.71278076 26.42032471 12.42556152 25.84064941 12.12963867 25.2434082 C10.81772898 22.59870611 9.50264529 19.9555945 8.1875 17.3125 C7.73568359 16.40048828 7.28386719 15.48847656 6.81835938 14.54882812 C5.02785159 10.95474316 3.25308319 7.41891501 1.17578125 3.98046875 C0 2 0 2 0 0 Z " fill="#B0A782" transform="translate(153,249)"/>
<path d="M0 0 C0.33 0 0.66 0 1 0 C1.32222776 4.67230248 1.43057686 7.13884627 -0.6875 11.375 C-3.06568509 14.07456145 -4.57542144 15.04872818 -8 16 C-7.125 10.125 -7.125 10.125 -6 9 C-6.33 8.34 -6.66 7.68 -7 7 C-5.68 7 -4.36 7 -3 7 C-2.01 4.69 -1.02 2.38 0 0 Z " fill="#C0B087" transform="translate(216,708)"/>
<path d="M0 0 C1.9453125 0.2421875 1.9453125 0.2421875 4.125 0.875 C4.84945312 1.07867188 5.57390625 1.28234375 6.3203125 1.4921875 C6.87460938 1.65976562 7.42890625 1.82734375 8 2 C7.01 2.99 6.02 3.98 5 5 C5.33 5.99 5.66 6.98 6 8 C5.01 9.485 5.01 9.485 4 11 C3.01 11 2.02 11 1 11 C-2 5.375 -2 5.375 -2 2 C-1.34 1.34 -0.68 0.68 0 0 Z " fill="#C2B18E" transform="translate(120,559)"/>
<path d="M0 0 C5.875 3.75 5.875 3.75 7 6 C7.928125 5.95875 8.85625 5.9175 9.8125 5.875 C13 6 13 6 16 8 C16 7.34 16 6.68 16 6 C16.66 6.33 17.32 6.66 18 7 C18.66 7 19.32 7 20 7 C20.66 5.68 21.32 4.36 22 3 C22.66 3 23.32 3 24 3 C23.43472 6.278624 22.6740387 7.97718193 20 10 C14.8650911 10.62379634 9.88565454 10.15090939 5.43359375 7.43359375 C3.4284833 5.71544008 1.63082916 4.0769089 0 2 C0 1.34 0 0.68 0 0 Z " fill="#A89C7E" transform="translate(81,288)"/>
<path d="M0 0 C0.66 0 1.32 0 2 0 C1.91621094 1.05960937 1.83242187 2.11921875 1.74609375 3.2109375 C1.64293168 4.59893625 1.54008337 5.98695835 1.4375 7.375 C1.38142578 8.07367188 1.32535156 8.77234375 1.26757812 9.4921875 C0.88500096 13.36528865 0.88500096 13.36528865 2 17 C1.34 17 0.68 17 0 17 C-0.66 20.96 -1.32 24.92 -2 29 C-2.33 29 -2.66 29 -3 29 C-3.16356156 22.30079127 -2.57602131 16.0438831 -1.5 9.4375 C-1.35691406 8.52419922 -1.21382812 7.61089844 -1.06640625 6.66992188 C-0.71703202 4.44557264 -0.36148178 2.2224079 0 0 Z " fill="#ADA47E" transform="translate(139,394)"/>
<path d="M0 0 C0.680625 0.721875 1.36125 1.44375 2.0625 2.1875 C4.09119827 4.23348831 6.18009536 5.88263478 8.5625 7.5 C10.94856016 9.13175727 12.20202407 10.26515659 14 12.625 C16.66804891 15.79330808 19.17487403 16.48438405 23 18 C23.33 18.66 23.66 19.32 24 20 C15.5760992 18.73125137 7.65925349 12.1850521 2 6 C0.5 2.5625 0.5 2.5625 0 0 Z " fill="#AFA583" transform="translate(169,279)"/>
<path d="M0 0 C0.66 0 1.32 0 2 0 C2.18442764 5.34840145 1.72523136 8.89877635 0 14 C-0.66997862 17.25609608 -1.2836065 20.51108777 -1.85546875 23.78515625 C-2.78783097 28.78783097 -2.78783097 28.78783097 -5 31 C-4.51739376 20.47918394 -2.17218433 10.27221291 0 0 Z " fill="#B1A582" transform="translate(92,204)"/>
<path d="M0 0 C0.66 0 1.32 0 2 0 C3.81771173 4.08103297 5.62826264 8.16520387 7.4375 12.25 C8.2119043 13.98830078 8.2119043 13.98830078 9.00195312 15.76171875 C9.49501953 16.87675781 9.98808594 17.99179688 10.49609375 19.140625 C10.95169678 20.16704102 11.4072998 21.19345703 11.87670898 22.25097656 C12.80123547 24.51356474 13.49868891 26.61565472 14 29 C13.34 29 12.68 29 12 29 C11.16209211 27.21046815 10.32980604 25.41830305 9.5 23.625 C9.0359375 22.62726563 8.571875 21.62953125 8.09375 20.6015625 C7 18 7 18 7 16 C6.34 16 5.68 16 5 16 C4.87625 15.0409375 4.87625 15.0409375 4.75 14.0625 C3.86718982 10.45769176 2.42069826 7.33564223 0.83984375 3.98828125 C0 2 0 2 0 0 Z " fill="#B7A986" transform="translate(135,166)"/>
<path d="M0 0 C1 2 1 2 0.36328125 3.96875 C-0.15685547 5.22171875 -0.15685547 5.22171875 -0.6875 6.5 C-3.72734249 14.43324749 -5.28398872 22.70290292 -7 31 C-9 28 -9 28 -8.86328125 25.94140625 C-8.68152344 25.15636719 -8.49976563 24.37132812 -8.3125 23.5625 C-8.11011719 22.68207031 -7.90773437 21.80164063 -7.69921875 20.89453125 C-7.35310547 19.46173828 -7.35310547 19.46173828 -7 18 C-6.77957031 16.97261719 -6.55914062 15.94523438 -6.33203125 14.88671875 C-5.02916703 9.1066084 -3.73636346 4.63824429 0 0 Z " fill="#B2A783" transform="translate(219,161)"/>
<path d="M0 0 C0.33 0 0.66 0 1 0 C1.99 11.55 2.98 23.1 4 35 C3.34 35 2.68 35 2 35 C1.85820312 34.11957031 1.71640625 33.23914063 1.5703125 32.33203125 C1.22987594 30.34304232 0.85994246 28.35822951 0.4296875 26.38671875 C-1.40666738 17.45065379 -0.78996007 9.00981481 0 0 Z " fill="#B3A478" transform="translate(203,249)"/>
<path d="M0 0 C0.99 0.33 1.98 0.66 3 1 C4.31640625 3.65234375 4.31640625 3.65234375 5.5625 6.9375 C7.16603688 11.36387295 7.16603688 11.36387295 10 15 C10.8563027 17.63233792 11.38929927 20.29546818 12 23 C12.66 23 13.32 23 14 23 C14.33 25.31 14.66 27.62 15 30 C12.58746905 26.9755078 10.81400701 23.88561663 9.08203125 20.4296875 C8.55029297 19.36878906 8.01855469 18.30789062 7.47070312 17.21484375 C6.92349609 16.11269531 6.37628906 15.01054687 5.8125 13.875 C5.25369141 12.76511719 4.69488281 11.65523437 4.11914062 10.51171875 C3.59126953 9.45339844 3.06339844 8.39507812 2.51953125 7.3046875 C2.03589111 6.33515137 1.55225098 5.36561523 1.05395508 4.36669922 C0 2 0 2 0 0 Z " fill="#AFA580" transform="translate(138,219)"/>
<path d="M0 0 C0.66 0 1.32 0 2 0 C3.98 4.62 5.96 9.24 8 14 C7.01 14.495 7.01 14.495 6 15 C4.68 12.03 3.36 9.06 2 6 C1.67 6 1.34 6 1 6 C0.34 9.63 -0.32 13.26 -1 17 C-1.66 17 -2.32 17 -3 17 C-2.48517081 11.147205 -1.54642808 5.6702363 0 0 Z " fill="#B3A477" transform="translate(120,178)"/>
<path d="M0 0 C0.99 0.33 1.98 0.66 3 1 C3.8703035 3.72695096 4.31377616 5.20637999 4 8 C2.00186626 11.30581288 -0.40547734 14.14667209 -3 17 C-5.1385485 14.8614515 -5.42655063 13.86724686 -6 11 C-4.02 10.67 -2.04 10.34 0 10 C0.93786082 4.94990405 0.93786082 4.94990405 0 0 Z " fill="#C1B691" transform="translate(224,144)"/>
<path d="M0 0 C0.66 0 1.32 0 2 0 C1.01 5.28 0.02 10.56 -1 16 C-0.34 16.33 0.32 16.66 1 17 C0.54625 17.680625 0.0925 18.36125 -0.375 19.0625 C-2.16836486 22.30435186 -3.08753869 25.4203441 -4 29 C-5.23322843 25.41651556 -4.7721117 22.81302176 -4.00390625 19.140625 C-3.77509766 18.02558594 -3.54628906 16.91054687 -3.31054688 15.76171875 C-3.06369141 14.60285156 -2.81683594 13.44398438 -2.5625 12.25 C-2.19801758 10.48849609 -2.19801758 10.48849609 -1.82617188 8.69140625 C-1.22519202 5.79256223 -0.61619498 2.8956412 0 0 Z " fill="#B4A882" transform="translate(100,164)"/>
<path d="M0 0 C1.32 0 2.64 0 4 0 C3.67 1.32 3.34 2.64 3 4 C-2.28 4.66 -7.56 5.32 -13 6 C-12.67 4.68 -12.34 3.36 -12 2 C-10.68 2 -9.36 2 -8 2 C-3.66420425 1.82890456 -3.66420425 1.82890456 0 0 Z " fill="#B3A680" transform="translate(136,377)"/>
<path d="M0 0 C0.33 0 0.66 0 1 0 C1.05534912 0.71655762 1.11069824 1.43311523 1.16772461 2.17138672 C1.42001558 5.40627677 1.67867668 8.64062633 1.9375 11.875 C2.02451172 13.00292969 2.11152344 14.13085938 2.20117188 15.29296875 C2.28818359 16.36933594 2.37519531 17.44570313 2.46484375 18.5546875 C2.543396 19.54968262 2.62194824 20.54467773 2.70288086 21.56982422 C2.86274433 24.00495664 2.86274433 24.00495664 4 26 C3.34 26 2.68 26 2 26 C1.67 26.66 1.34 27.32 1 28 C0 27 0 27 -0.11352539 24.40795898 C-0.10828857 23.28204346 -0.10305176 22.15612793 -0.09765625 20.99609375 C-0.09443359 19.78115234 -0.09121094 18.56621094 -0.08789062 17.31445312 C-0.07951172 16.03505859 -0.07113281 14.75566406 -0.0625 13.4375 C-0.05798828 12.15423828 -0.05347656 10.87097656 -0.04882812 9.54882812 C-0.03699545 6.36583978 -0.02051068 3.18294238 0 0 Z " fill="#B4A681" transform="translate(52,769)"/>
<path d="M0 0 C-6.06974078 2.68469304 -10.52039084 4.13564793 -17.25 4.0625 C-18.32765625 4.05347656 -19.4053125 4.04445313 -20.515625 4.03515625 C-21.33546875 4.02355469 -22.1553125 4.01195312 -23 4 C-19.46332072 1.64221381 -16.15994448 1.05715643 -12.0625 0.3125 C-11.34642578 0.17005859 -10.63035156 0.02761719 -9.89257812 -0.11914062 C-3.41023091 -1.32669557 -3.41023091 -1.32669557 0 0 Z " fill="#B1A685" transform="translate(184,346)"/>
<path d="M0 0 C0 0.99 0 1.98 0 3 C-6.6 3 -13.2 3 -20 3 C-20 2.34 -20 1.68 -20 1 C-17.04170322 0.832662 -14.08336635 0.66609948 -11.125 0.5 C-9.86236328 0.42845703 -9.86236328 0.42845703 -8.57421875 0.35546875 C-7.76855469 0.31035156 -6.96289062 0.26523437 -6.1328125 0.21875 C-5.38918457 0.17685547 -4.64555664 0.13496094 -3.87939453 0.09179688 C-2.58744125 0.0286929 -1.29349349 0 0 0 Z " fill="#AAA27C" transform="translate(228,795)"/>
<path d="M0 0 C0 0.66 0 1.32 0 2 C0.66 2.33 1.32 2.66 2 3 C1.01 4.485 1.01 4.485 0 6 C-0.99 5.67 -1.98 5.34 -3 5 C-3.33 4.34 -3.66 3.68 -4 3 C-4.99 4.485 -4.99 4.485 -6 6 C-6.99 5.67 -7.98 5.34 -9 5 C-5.28508772 -1.58552632 -5.28508772 -1.58552632 0 0 Z " fill="#BAB091" transform="translate(95,354)"/>
<path d="M0 0 C-2.58926331 2.58926331 -4.02705279 2.37398043 -7.625 2.625 C-8.62789062 2.69976562 -9.63078125 2.77453125 -10.6640625 2.8515625 C-11.43492187 2.90054687 -12.20578125 2.94953125 -13 3 C-13 3.66 -13 4.32 -13 5 C-15.64 5.66 -18.28 6.32 -21 7 C-21.33 5.68 -21.66 4.36 -22 3 C-19.27172635 2.49465273 -16.54255306 1.99556155 -13.8125 1.5 C-13.04357422 1.35691406 -12.27464844 1.21382813 -11.48242188 1.06640625 C-7.60578227 0.36761285 -3.958529 -0.19039017 0 0 Z " fill="#B8AF88" transform="translate(151,351)"/>
<path d="M0 0 C0.33 0 0.66 0 1 0 C0.67 6.93 0.34 13.86 0 21 C-0.66 20.67 -1.32 20.34 -2 20 C-2.3690205 6.3667426 -2.3690205 6.3667426 0 0 Z " fill="#AFA681" transform="translate(205,227)"/>
<path d="M0 0 C0.99 0 1.98 0 3 0 C3.05791844 3.12492251 3.09356746 6.24970766 3.125 9.375 C3.14175781 10.26445313 3.15851563 11.15390625 3.17578125 12.0703125 C3.18222656 12.92109375 3.18867188 13.771875 3.1953125 14.6484375 C3.20578613 15.43395996 3.21625977 16.21948242 3.22705078 17.02880859 C3 19 3 19 1 21 C0.67 14.07 0.34 7.14 0 0 Z " fill="#B3A781" transform="translate(223,40)"/>
<path d="M0 0 C0.99 0.33 1.98 0.66 3 1 C2.401875 1.886875 1.80375 2.77375 1.1875 3.6875 C-1.47956518 8.25826541 -2.29228759 13.15663824 -3.2890625 18.3046875 C-3.52367187 19.19414063 -3.75828125 20.08359375 -4 21 C-4.66 21.33 -5.32 21.66 -6 22 C-7.27957362 18.16127914 -6.46714061 16.51090908 -5.25 12.6875 C-4.90453125 11.57761719 -4.5590625 10.46773437 -4.203125 9.32421875 C-3.02328092 6.06432489 -1.61367914 3.06506296 0 0 Z " fill="#B7A885" transform="translate(153,586)"/>
<path d="M0 0 C1.9375 0.6875 1.9375 0.6875 4 2 C5.13064803 4.98814123 5.08784699 6.64861202 4.3125 9.75 C3 12 3 12 0.875 12.8125 C0.25625 12.874375 -0.3625 12.93625 -1 13 C-1.33 12.01 -1.66 11.02 -2 10 C-1.484375 9.649375 -0.96875 9.29875 -0.4375 8.9375 C1.40146383 6.90531273 1.40146383 6.90531273 0.6875 3.3125 C0.460625 2.219375 0.23375 1.12625 0 0 Z " fill="#C4B592" transform="translate(168,380)"/>
<path d="M0 0 C0.66 0.33 1.32 0.66 2 1 C1.55527344 1.44730469 1.11054687 1.89460938 0.65234375 2.35546875 C-2.96985926 5.95125985 -2.96985926 5.95125985 -4 10.6875 C-3.35258568 12.18464561 -2.66696423 13.66607155 -1.9375 15.125 C-1 17 -1 17 -1 20 C-1.66 20 -2.32 20 -3 20 C-5.18743069 16.30108286 -6.95094546 13.22636358 -7.125 8.875 C-5.54947206 4.84865081 -3.21423227 2.87229267 0 0 Z " fill="#ABA284" transform="translate(85,357)"/>
<path d="M0 0 C0.66 0 1.32 0 2 0 C5.59523599 5.73115109 7.62964591 10.21017493 8 17 C7.01 16.67 6.02 16.34 5 16 C4.67 13.36 4.34 10.72 4 8 C3.34 8 2.68 8 2 8 C1.34 5.36 0.68 2.72 0 0 Z " fill="#B3AB8C" transform="translate(215,350)"/>
<path d="M0 0 C0.66 0.66 1.32 1.32 2 2 C1.35933594 2.18175781 0.71867187 2.36351562 0.05859375 2.55078125 C-4.00927685 3.73294931 -7.96533929 4.90010232 -11.8125 6.6875 C-14.87055002 7.94669707 -16.74667878 8.29575647 -20 8 C-17 6 -17 6 -14.375 5.5 C-13.59125 5.335 -12.8075 5.17 -12 5 C-11.67 4.34 -11.34 3.68 -11 3 C-7.42797298 1.61989865 -3.81457039 0.42384115 0 0 Z " fill="#AFA480" transform="translate(120,382)"/>
<path d="M0 0 C0.99 0.495 0.99 0.495 2 1 C3.93147777 6.90173763 4.74932084 12.79606423 4 19 C3.34 19.99 2.68 20.98 2 22 C1.34 14.74 0.68 7.48 0 0 Z " fill="#ABA582" transform="translate(62,730)"/>
<path d="M0 0 C0.33 0 0.66 0 1 0 C1.38297872 19.23404255 1.38297872 19.23404255 -1 24 C-1.66 24 -2.32 24 -3 24 C-2.8453125 23.35417969 -2.690625 22.70835938 -2.53125 22.04296875 C-1.71722408 17.38027619 -1.60757899 12.69716767 -1.39453125 7.97460938 C-1.10224581 2.20449162 -1.10224581 2.20449162 0 0 Z " fill="#B3A685" transform="translate(237,57)"/>
<path d="M0 0 C0.66 0 1.32 0 2 0 C2 3.63 2 7.26 2 11 C4.31 11.66 6.62 12.32 9 13 C9 13.66 9 14.32 9 15 C2.54985337 14.51319648 2.54985337 14.51319648 0.125 12.25 C-1.14366548 9.71266905 -1.79239491 7.83726962 -2 5 C-1.0625 2.1875 -1.0625 2.1875 0 0 Z " fill="#AEA78C" transform="translate(55,27)"/>
<path d="M0 0 C0.33 0 0.66 0 1 0 C0.99476318 0.56509277 0.98952637 1.13018555 0.98413086 1.71240234 C0.96337578 4.2665903 0.9503446 6.82076053 0.9375 9.375 C0.92912109 10.26445312 0.92074219 11.15390625 0.91210938 12.0703125 C0.90888672 12.92109375 0.90566406 13.771875 0.90234375 14.6484375 C0.89710693 15.43395996 0.89187012 16.21948242 0.88647461 17.02880859 C0.87426047 19.07772668 0.87426047 19.07772668 2 21 C1.34 21.66 0.68 22.32 0 23 C0 22.34 0 21.68 0 21 C-0.66 20.67 -1.32 20.34 -2 20 C-1.67 17.69 -1.34 15.38 -1 13 C-1.66 13 -2.32 13 -3 13 C-2.67 11.68 -2.34 10.36 -2 9 C-1.34 9 -0.68 9 0 9 C0 6.03 0 3.06 0 0 Z " fill="#C9BA8C" transform="translate(142,381)"/>
<path d="M0 0 C2.45391569 3.68087353 2.22802759 6.44355588 2.125 10.6875 C2.11597656 11.38939453 2.10695312 12.09128906 2.09765625 12.81445312 C2.07413704 14.54311525 2.03826713 16.27160145 2 18 C1.01 17.34 0.02 16.68 -1 16 C-1.2578125 13.03125 -1.2578125 13.03125 -1.125 9.5 C-0.79270788 5.08980227 -0.79270788 5.08980227 -2 1 C-1.34 0.67 -0.68 0.34 0 0 Z " fill="#ADA480" transform="translate(134,146)"/>
<path d="M0 0 C5.70985379 3.65119902 10.94464135 7.48244546 16 12 C14 13 14 13 11.9375 12.75 C11.298125 12.5025 10.65875 12.255 10 12 C9.67 11.01 9.34 10.02 9 9 C6.46118772 6.72382347 4.35369486 5.59887408 1 5 C0.67 3.35 0.34 1.7 0 0 Z " fill="#B4AB88" transform="translate(195,689)"/>
<path d="M0 0 C1.03125 0.4125 2.0625 0.825 3.125 1.25 C3.125 1.58 3.125 1.91 3.125 2.25 C2.55910156 2.38277344 1.99320313 2.51554687 1.41015625 2.65234375 C0.30994141 2.91724609 0.30994141 2.91724609 -0.8125 3.1875 C-1.54339844 3.36152344 -2.27429688 3.53554688 -3.02734375 3.71484375 C-4.87469898 4.08887569 -4.87469898 4.08887569 -5.875 5.25 C-6.865 5.25 -7.855 5.25 -8.875 5.25 C-8.875 5.91 -8.875 6.57 -8.875 7.25 C-9.535 7.25 -10.195 7.25 -10.875 7.25 C-10.63963863 3.95494081 -9.75893116 3.14498533 -7.25 0.875 C-3.875 -0.75 -3.875 -0.75 0 0 Z " fill="#C6B78D" transform="translate(193.875,341.75)"/>
<path d="M0 0 C0.99 0.33 1.98 0.66 3 1 C4.98834962 5.39529916 5.19118486 9.22037853 5 14 C4.01 14.495 4.01 14.495 3 15 C2.01 10.05 1.02 5.1 0 0 Z " fill="#B4A67E" transform="translate(75,269)"/>
<path d="M0 0 C1.32 0 2.64 0 4 0 C4.33 2.97 4.66 5.94 5 9 C4.67 9 4.34 9 4 9 C4 7.35 4 5.7 4 4 C2.68 4.99 1.36 5.98 0 7 C-0.66 6.67 -1.32 6.34 -2 6 C-1.34 4.02 -0.68 2.04 0 0 Z " fill="#C1B597" transform="translate(58,729)"/>
<path d="M0 0 C6.52307692 0.61538462 6.52307692 0.61538462 8.9375 2.5625 C9.288125 3.036875 9.63875 3.51125 10 4 C9.67 4.99 9.34 5.98 9 7 C6.62051228 6.82374165 5.29774151 6.30280227 3.62109375 4.59765625 C2.37884514 3.09350908 1.18623944 1.54870149 0 0 Z " fill="#C9B78F" transform="translate(180,688)"/>
<path d="M0 0 C0.99 0.33 1.98 0.66 3 1 C2.88544319 2.91731918 2.75793742 4.8338675 2.625 6.75 C2.55539063 7.81734375 2.48578125 8.8846875 2.4140625 9.984375 C2.0271777 12.80206432 1.44313834 14.5830366 0 17 C-1.08054473 13.6222972 -0.94536404 10.88222368 -0.5625 7.375 C-0.15027804 3.6942626 -0.15027804 3.6942626 0 0 Z " fill="#B2A483" transform="translate(105,274)"/>
<path d="M0 0 C0.99 0 1.98 0 3 0 C3.33 0.66 3.66 1.32 4 2 C6.01669827 3.13350534 6.01669827 3.13350534 8 4 C2.91913204 4.84681133 -1.84828377 5.09038099 -7 5 C-6.67 4.34 -6.34 3.68 -6 3 C-4.33333333 2.66666667 -2.66666667 2.33333333 -1 2 C-0.67 1.34 -0.34 0.68 0 0 Z " fill="#C5B490" transform="translate(177,695)"/>
<path d="M0 0 C0.66 0.33 1.32 0.66 2 1 C2 1.66 2 2.32 2 3 C2.66 3.66 3.32 4.32 4 5 C3.25 7.4375 3.25 7.4375 2 10 C-0.125 10.8125 -0.125 10.8125 -2 11 C-2.19622241 6.78121808 -1.80230168 3.82989106 0 0 Z " fill="#C8B98B" transform="translate(230,81)"/>
<path d="M0 0 C0.66 0 1.32 0 2 0 C3.28406399 1.95224208 4.47941678 3.96340762 5.625 6 C6.25664062 7.11375 6.88828125 8.2275 7.5390625 9.375 C8.26222656 10.674375 8.26222656 10.674375 9 12 C8.01 12.495 8.01 12.495 7 13 C4.93414468 10.93414468 3.78817712 9.04537166 2.375 6.5 C1.92898437 5.7059375 1.48296875 4.911875 1.0234375 4.09375 C0 2 0 2 0 0 Z " fill="#ACA485" transform="translate(217,131)"/>
<path d="M0 0 C0.66 0.33 1.32 0.66 2 1 C2 6.28 2 11.56 2 17 C1.67 17 1.34 17 1 17 C0.855625 15.783125 0.71125 14.56625 0.5625 13.3125 C0.26923379 10.90261683 -0.08604429 8.62140511 -0.625 6.25 C-1.02844973 3.82930161 -0.76962049 2.30886148 0 0 Z " fill="#ACA480" transform="translate(65,753)"/>
<path d="M0 0 C0.33 0 0.66 0 1 0 C2.06795656 5.57710648 1.82622671 10.39436958 1 16 C-1 15 -1 15 -1.625 13.125 C-2.463127 8.37561365 -1.20034034 4.57629756 0 0 Z " fill="#CAB98C" transform="translate(108,243)"/>
<path d="M0 0 C2.125 0.9375 2.125 0.9375 4 2 C4 2.99 4 3.98 4 5 C4.94978897 7.15028304 4.94978897 7.15028304 6 9 C2.63820226 7.55922954 0.40843732 5.75249979 -2 3 C-2 2.34 -2 1.68 -2 1 C-1.34 0.67 -0.68 0.34 0 0 Z " fill="#B0A88F" transform="translate(179,685)"/>
<path d="M0 0 C2.69456005 2.69456005 2.72381147 4.20240777 3 8 C2.50745372 11.04980675 1.80188533 14.01778183 1 17 C0.34 16.34 -0.32 15.68 -1 15 C-0.98252112 12.40730017 -0.86231408 9.9474846 -0.625 7.375 C-0.56828125 6.66859375 -0.5115625 5.9621875 -0.453125 5.234375 C-0.31159079 3.48878639 -0.15702613 1.74426327 0 0 Z " fill="#C9BA85" transform="translate(135,653)"/>
<path d="M0 0 C0 0.66 0 1.32 0 2 C-1.65 2 -3.3 2 -5 2 C-5 2.66 -5 3.32 -5 4 C-3.68 4.66 -2.36 5.32 -1 6 C-1.99 6.495 -1.99 6.495 -3 7 C-5.03833424 5.7260411 -7.03852126 4.38938077 -9 3 C-9 2.34 -9 1.68 -9 1 C-5.846632 0.29925156 -3.27275026 0 0 0 Z " fill="#B8AA79" transform="translate(169,372)"/>
<path d="M0 0 C0.66 0 1.32 0 2 0 C1.60856977 2.27029534 1.11258722 3.83408198 -0.1875 5.75 C-2.78687216 7.54267046 -4.92339216 7.20510719 -8 7 C-8.33 6.34 -8.66 5.68 -9 5 C-8.01 5 -7.02 5 -6 5 C-6 4.34 -6 3.68 -6 3 C-5.34 3.33 -4.68 3.66 -4 4 C-3.34 4 -2.68 4 -2 4 C-1.34 2.68 -0.68 1.36 0 0 Z " fill="#B5A885" transform="translate(103,291)"/>
<path d="M0 0 C0.6875 1.6875 0.6875 1.6875 1 4 C-0.68267209 7.63102925 -2.58707361 9.90820641 -6 12 C-6.66 12 -7.32 12 -8 12 C-7.67 11.01 -7.34 10.02 -7 9 C-4.9375 8.3125 -4.9375 8.3125 -3 8 C-2.690625 6.865625 -2.38125 5.73125 -2.0625 4.5625 C-1 1 -1 1 0 0 Z " fill="#ACA383" transform="translate(205,286)"/>
<path d="M0 0 C0.66 0.66 1.32 1.32 2 2 C2.99 2 3.98 2 5 2 C5 2.99 5 3.98 5 5 C2.69 5.66 0.38 6.32 -2 7 C-2.125 4.625 -2.125 4.625 -2 2 C-1.34 1.34 -0.68 0.68 0 0 Z " fill="#A99C7F" transform="translate(212,125)"/>
<path d="M0 0 C0.33 0 0.66 0 1 0 C1.0270043 1.45823212 1.04639787 2.91660675 1.0625 4.375 C1.07410156 5.18710937 1.08570313 5.99921875 1.09765625 6.8359375 C1 9 1 9 0 11 C-0.66 11 -1.32 11 -2 11 C-2 10.01 -2 9.02 -2 8 C-2.66 8 -3.32 8 -4 8 C-4.33 7.01 -4.66 6.02 -5 5 C-3.68 5 -2.36 5 -1 5 C-0.67 3.35 -0.34 1.7 0 0 Z " fill="#B4A473" transform="translate(129,471)"/>
<path d="M0 0 C-0.33 1.32 -0.66 2.64 -1 4 C-1.598125 3.79375 -2.19625 3.5875 -2.8125 3.375 C-5.28450846 2.69328085 -5.28450846 2.69328085 -8 5 C-8.33 3.68 -8.66 2.36 -9 1 C-5.8035914 -0.06546953 -3.34252724 -0.07427838 0 0 Z " fill="#BCAF83" transform="translate(129,355)"/>
<path d="M0 0 C0.99 0.33 1.98 0.66 3 1 C3 2.32 3 3.64 3 5 C2.34 5 1.68 5 1 5 C1.33 7.31 1.66 9.62 2 12 C1.01 12.495 1.01 12.495 0 13 C-1.36421031 10.27157939 -0.87807211 8.39046682 -0.5625 5.375 C-0.40974609 3.87066406 -0.40974609 3.87066406 -0.25390625 2.3359375 C-0.17011719 1.56507813 -0.08632812 0.79421875 0 0 Z " fill="#B0A780" transform="translate(187,194)"/>
<path d="M0 0 C2.78117672 1.0197648 3.81833102 1.66391238 5.25 4.3125 C6.00511726 7.01833686 6.1595955 9.20707882 6 12 C3.25207517 8.59780735 0 4.51535412 0 0 Z " fill="#C8B788" transform="translate(129,195)"/>
<path d="M0 0 C5.01508715 1.54058233 9.6147081 3.02931839 14 6 C12 7 12 7 9.6875 6.328125 C8.800625 5.97234375 7.91375 5.6165625 7 5.25 C6.113125 4.90453125 5.22625 4.5590625 4.3125 4.203125 C2 3 2 3 0 0 Z " fill="#B1AA8B" transform="translate(201,343)"/>
<path d="M0 0 C0.33 0 0.66 0 1 0 C1.33 5.94 1.66 11.88 2 18 C1.01 18 0.02 18 -1 18 C-0.505 9.09 -0.505 9.09 0 0 Z " fill="#B6AA80" transform="translate(203,249)"/>
<path d="M0 0 C0.33 0.66 0.66 1.32 1 2 C-0.21484375 4.3828125 -0.21484375 4.3828125 -1.9375 7.125 C-2.50339844 8.03507813 -3.06929687 8.94515625 -3.65234375 9.8828125 C-4.09707031 10.58148438 -4.54179687 11.28015625 -5 12 C-5.66 11.34 -6.32 10.68 -7 10 C-6.21172254 8.70626218 -5.41924884 7.41508049 -4.625 6.125 C-4.18414062 5.40570313 -3.74328125 4.68640625 -3.2890625 3.9453125 C-2 2 -2 2 0 0 Z " fill="#A89F80" transform="translate(205,126)"/>
<path d="M0 0 C0.66 0 1.32 0 2 0 C2 1.98 2 3.96 2 6 C1.34 6 0.68 6 0 6 C0 7.65 0 9.3 0 11 C-0.99 11.495 -0.99 11.495 -2 12 C-1.85831863 10.56208484 -1.71148957 9.1246763 -1.5625 7.6875 C-1.48128906 6.88699219 -1.40007812 6.08648438 -1.31640625 5.26171875 C-1 3 -1 3 0 0 Z " fill="#B7AB85" transform="translate(109,679)"/>
<path d="M0 0 C0.33 0.66 0.66 1.32 1 2 C1.66 2.33 2.32 2.66 3 3 C2.34 4.98 1.68 6.96 1 9 C-0.32 8.34 -1.64 7.68 -3 7 C-2.01 4.69 -1.02 2.38 0 0 Z " fill="#A89E7B" transform="translate(124,477)"/>
<path d="M0 0 C0 0.99 0 1.98 0 3 C-1.98 3 -3.96 3 -6 3 C-6 4.98 -6 6.96 -6 9 C-8 7 -8 7 -8.125 4.375 C-8.08375 3.59125 -8.0425 2.8075 -8 2 C-2.25 0 -2.25 0 0 0 Z " fill="#A49E87" transform="translate(109,129)"/>
<path d="M0 0 C0.33 0 0.66 0 1 0 C1.28571429 7.42857143 1.28571429 7.42857143 -1 11 C-2.32 11 -3.64 11 -5 11 C-5 10.34 -5 9.68 -5 9 C-4.01 9 -3.02 9 -2 9 C-1.34 6.03 -0.68 3.06 0 0 Z " fill="#AFA58D" transform="translate(234,82)"/>
<path d="M0 0 C0.33 0 0.66 0 1 0 C1.36923077 7.38461538 1.36923077 7.38461538 -0.5 10.5 C-0.995 10.995 -1.49 11.49 -2 12 C-3.335163 7.99451099 -2.68075022 5.48163284 -0.9375 1.6875 C-0.628125 1.130625 -0.31875 0.57375 0 0 Z " fill="#AF9F82" transform="translate(216,708)"/>
<path d="M0 0 C0.99 0.33 1.98 0.66 3 1 C3 1.66 3 2.32 3 3 C3.66 3 4.32 3 5 3 C6.7143618 4.95927063 8.38405168 6.95880212 10 9 C6.71245489 8.42110619 5.06327505 7.45171589 2.75 5.0625 C2.22921875 4.53785156 1.7084375 4.01320313 1.171875 3.47265625 C0 2 0 2 0 0 Z " fill="#AEA283" transform="translate(83,378)"/>
<path d="M0 0 C0 1.98 0 3.96 0 6 C-0.99 6.33 -1.98 6.66 -3 7 C-3.66 5.02 -4.32 3.04 -5 1 C-1.125 0 -1.125 0 0 0 Z " fill="#B9AA7D" transform="translate(109,268)"/>
<path d="M0 0 C0.33 0.66 0.66 1.32 1 2 C-0.125 4.625 -0.125 4.625 -2 7 C-4.6875 7.3125 -4.6875 7.3125 -7 7 C-6.34 6.01 -5.68 5.02 -5 4 C-4.34 4 -3.68 4 -3 4 C-2.67 3.01 -2.34 2.02 -2 1 C-1.34 0.67 -0.68 0.34 0 0 Z " fill="#CBBA91" transform="translate(210,125)"/>
<path d="M0 0 C0.66 0.66 1.32 1.32 2 2 C1.625 4.125 1.625 4.125 1 6 C0.34 5.34 -0.32 4.68 -1 4 C-0.625 1.875 -0.625 1.875 0 0 Z M0 6 C0.33 6.99 0.66 7.98 1 9 C0.01 10.485 0.01 10.485 -1 12 C-1.66 11.67 -2.32 11.34 -3 11 C-2.625 9.0625 -2.625 9.0625 -2 7 C-1.34 6.67 -0.68 6.34 0 6 Z " fill="#C6B790" transform="translate(157,574)"/>
<path d="M0 0 C0 0.99 0 1.98 0 3 C-4.455 3.495 -4.455 3.495 -9 4 C-9.33 3.34 -9.66 2.68 -10 2 C-6.7 1.34 -3.4 0.68 0 0 Z " fill="#A79F82" transform="translate(131,557)"/>
<path d="M0 0 C0.66 0 1.32 0 2 0 C2.125 6.625 2.125 6.625 1 10 C0.34 10 -0.32 10 -1 10 C-0.67 6.7 -0.34 3.4 0 0 Z " fill="#B5AC85" transform="translate(153,494)"/>
<path d="M0 0 C0.66 0 1.32 0 2 0 C3.0326802 2.78823655 3.04509293 3.8677274 2.0625 6.75 C1.711875 7.4925 1.36125 8.235 1 9 C0.34 9 -0.32 9 -1 9 C-0.67 6.03 -0.34 3.06 0 0 Z " fill="#AEA478" transform="translate(197,139)"/>
<path d="M0 0 C0.66 0 1.32 0 2 0 C2.33 3.3 2.66 6.6 3 10 C2.34 10 1.68 10 1 10 C0.67 6.7 0.34 3.4 0 0 Z " fill="#C1B28C" transform="translate(158,416)"/>
<path d="M0 0 C0.33 0.99 0.66 1.98 1 3 C1.66 3.33 2.32 3.66 3 4 C2.01 4.495 2.01 4.495 1 5 C0.59270772 7.32156597 0.25561323 9.6568787 0 12 C-0.33 12 -0.66 12 -1 12 C-1 9.36 -1 6.72 -1 4 C-1.66 3.67 -2.32 3.34 -3 3 C-2.01 2.67 -1.02 2.34 0 2 C0 1.34 0 0.68 0 0 Z " fill="#C7B98D" transform="translate(132,684)"/>
<path d="M0 0 C2.625 0.9375 2.625 0.9375 5 2 C4.34 2.66 3.68 3.32 3 4 C2.35232207 6.57061311 2.35232207 6.57061311 2 9 C0.22293791 6.33440687 -0.87548273 3.9719385 -2 1 C-1.34 0.67 -0.68 0.34 0 0 Z " fill="#C6BA8C" transform="translate(138,634)"/>
<path d="M0 0 C3.63 0 7.26 0 11 0 C9.515 1.485 9.515 1.485 8 3 C5.15124622 2.79846293 2.74900747 1.85624823 0 1 C0 0.67 0 0.34 0 0 Z " fill="#CCBD90" transform="translate(209,39)"/>
<path d="M0 0 C3.375 -0.125 3.375 -0.125 7 0 C7.66 0.66 8.32 1.32 9 2 C5.7 2.33 2.4 2.66 -1 3 C-0.67 2.01 -0.34 1.02 0 0 Z " fill="#AFA78A" transform="translate(169,696)"/>
<path d="M0 0 C0.33 0.99 0.66 1.98 1 3 C-1.40436026 6.60654039 -2.94679607 6.85452932 -7 8 C-5.74381926 4.23145777 -4.33985294 3.92041544 -1 2 C-0.67 1.34 -0.34 0.68 0 0 Z " fill="#A69D80" transform="translate(106,689)"/>
<path d="M0 0 C0.33 0 0.66 0 1 0 C1.05395478 1.62463842 1.09277195 3.24978541 1.125 4.875 C1.14820313 5.77992188 1.17140625 6.68484375 1.1953125 7.6171875 C1 10 1 10 -1 12 C-1 10.68 -1 9.36 -1 8 C-1.66 7.67 -2.32 7.34 -3 7 C-2.01 6.67 -1.02 6.34 0 6 C0 4.02 0 2.04 0 0 Z " fill="#CCBB8E" transform="translate(134,444)"/>
<path d="M0 0 C0.33 0 0.66 0 1 0 C0.67 2.97 0.34 5.94 0 9 C-0.99 8.67 -1.98 8.34 -3 8 C-1.125 1.125 -1.125 1.125 0 0 Z " fill="#B1A683" transform="translate(163,405)"/>
<path d="M0 0 C2.475 0.99 2.475 0.99 5 2 C4.34 3.32 3.68 4.64 3 6 C2.01 5.67 1.02 5.34 0 5 C-0.75 3 -0.75 3 -1 1 C-0.67 0.67 -0.34 0.34 0 0 Z " fill="#CCBE97" transform="translate(92,354)"/>
<path d="M0 0 C0.33 0.99 0.66 1.98 1 3 C3.97 3 6.94 3 10 3 C10 3.33 10 3.66 10 4 C1.42857143 5.42857143 1.42857143 5.42857143 -2 3 C-1.34 2.01 -0.68 1.02 0 0 Z " fill="#ACA482" transform="translate(67,777)"/>
<path d="M0 0 C1.9375 0.375 1.9375 0.375 4 1 C4.33 1.66 4.66 2.32 5 3 C4.34 3 3.68 3 3 3 C3 4.32 3 5.64 3 7 C2.34 6.67 1.68 6.34 1 6 C0.375 2.9375 0.375 2.9375 0 0 Z " fill="#BEAE85" transform="translate(123,487)"/>
<path d="M0 0 C0.33 0.99 0.66 1.98 1 3 C1.66 3.33 2.32 3.66 3 4 C2.34 4.66 1.68 5.32 1 6 C-1.125 5.625 -1.125 5.625 -3 5 C-1.125 1.125 -1.125 1.125 0 0 Z " fill="#C6B788" transform="translate(107,263)"/>
<path d="M0 0 C0.99 0.33 1.98 0.66 3 1 C3.33 3.97 3.66 6.94 4 10 C3.34 10 2.68 10 2 10 C1.34 6.7 0.68 3.4 0 0 Z " fill="#A19774" transform="translate(75,269)"/>
<path d="" fill="#FFFFFF" transform="translate(0,0)"/>
<path d="" fill="#FFFFFF" transform="translate(0,0)"/>
<path d="" fill="#FFFFFF" transform="translate(0,0)"/>
<path d="" fill="#FFFFFF" transform="translate(0,0)"/>
<path d="" fill="#FFFFFF" transform="translate(0,0)"/>
<path d="" fill="#FFFFFF" transform="translate(0,0)"/>
<path d="" fill="#FFFFFF" transform="translate(0,0)"/>
<path d="" fill="#FFFFFF" transform="translate(0,0)"/>
<path d="" fill="#FFFFFF" transform="translate(0,0)"/>
<path d="" fill="#FFFFFF" transform="translate(0,0)"/>
<path d="" fill="#FFFFFF" transform="translate(0,0)"/>
<path d="" fill="#FFFFFF" transform="translate(0,0)"/>
<path d="" fill="#FFFFFF" transform="translate(0,0)"/>
<path d="" fill="#FFFFFF" transform="translate(0,0)"/>
<path d="" fill="#FFFFFF" transform="translate(0,0)"/>
<path d="" fill="#FFFFFF" transform="translate(0,0)"/>
<path d="" fill="#FFFFFF" transform="translate(0,0)"/>
<path d="" fill="#FFFFFF" transform="translate(0,0)"/>
<path d="" fill="#FFFFFF" transform="translate(0,0)"/>
<path d="" fill="#FFFFFF" transform="translate(0,0)"/>
<path d="" fill="#FFFFFF" transform="translate(0,0)"/>
<path d="" fill="#FFFFFF" transform="translate(0,0)"/>
<path d="" fill="#FFFFFF" transform="translate(0,0)"/>
<path d="" fill="#FFFFFF" transform="translate(0,0)"/>
<path d="" fill="#FFFFFF" transform="translate(0,0)"/>
<path d="" fill="#FFFFFF" transform="translate(0,0)"/>
<path d="" fill="#FFFFFF" transform="translate(0,0)"/>
<path d="" fill="#FFFFFF" transform="translate(0,0)"/>
<path d="" fill="#FFFFFF" transform="translate(0,0)"/>
<path d="" fill="#FFFFFF" transform="translate(0,0)"/>
<path d="" fill="#FFFFFF" transform="translate(0,0)"/>
<path d="" fill="#FFFFFF" transform="translate(0,0)"/>
<path d="" fill="#FFFFFF" transform="translate(0,0)"/>
<path d="" fill="#FFFFFF" transform="translate(0,0)"/>
<path d="" fill="#FFFFFF" transform="translate(0,0)"/>
<path d="" fill="#FFFFFF" transform="translate(0,0)"/>
<path d="" fill="#FFFFFF" transform="translate(0,0)"/>
<path d="" fill="#FFFFFF" transform="translate(0,0)"/>
<path d="" fill="#FFFFFF" transform="translate(0,0)"/>
<path d="" fill="#FFFFFF" transform="translate(0,0)"/>
<path d="" fill="#FFFFFF" transform="translate(0,0)"/>
<path d="" fill="#FFFFFF" transform="translate(0,0)"/>
<path d="" fill="#FFFFFF" transform="translate(0,0)"/>
<path d="" fill="#FFFFFF" transform="translate(0,0)"/>
<path d="" fill="#FFFFFF" transform="translate(0,0)"/>
<path d="" fill="#FFFFFF" transform="translate(0,0)"/>
<path d="" fill="#FFFFFF" transform="translate(0,0)"/>
<path d="" fill="#FFFFFF" transform="translate(0,0)"/>
<path d="" fill="#FFFFFF" transform="translate(0,0)"/>
<path d="" fill="#FFFFFF" transform="translate(0,0)"/>
<path d="" fill="#FFFFFF" transform="translate(0,0)"/>
<path d="" fill="#FFFFFF" transform="translate(0,0)"/>
<path d="" fill="#FFFFFF" transform="translate(0,0)"/>
<path d="" fill="#FFFFFF" transform="translate(0,0)"/>
<path d="" fill="#FFFFFF" transform="translate(0,0)"/>
<path d="" fill="#FFFFFF" transform="translate(0,0)"/>
<path d="" fill="#FFFFFF" transform="translate(0,0)"/>
<path d="" fill="#FFFFFF" transform="translate(0,0)"/>
<path d="" fill="#FFFFFF" transform="translate(0,0)"/>
<path d="" fill="#FFFFFF" transform="translate(0,0)"/>
<path d="" fill="#FFFFFF" transform="translate(0,0)"/>
<path d="" fill="#FFFFFF" transform="translate(0,0)"/>
<path d="" fill="#FFFFFF" transform="translate(0,0)"/>
<path d="" fill="#FFFFFF" transform="translate(0,0)"/>
<path d="" fill="#FFFFFF" transform="translate(0,0)"/>
<path d="" fill="#FFFFFF" transform="translate(0,0)"/>
<path d="" fill="#FFFFFF" transform="translate(0,0)"/>
<path d="" fill="#FFFFFF" transform="translate(0,0)"/>
<path d="" fill="#FFFFFF" transform="translate(0,0)"/>
<path d="" fill="#FFFFFF" transform="translate(0,0)"/>
<path d="" fill="#FFFFFF" transform="translate(0,0)"/>
<path d="" fill="#FFFFFF" transform="translate(0,0)"/>
<path d="" fill="#FFFFFF" transform="translate(0,0)"/>
<path d="" fill="#FFFFFF" transform="translate(0,0)"/>
<path d="" fill="#FFFFFF" transform="translate(0,0)"/>
<path d="" fill="#FFFFFF" transform="translate(0,0)"/>
</svg>
